<?xml version="1.0" encoding="utf-8"?>
<!-- Generator: Fusion 360, Shaper Origin Export Add-In, Version 1.8.0  -->
<svg xmlns="http://www.w3.org/2000/svg" xmlns:xlink="http://www.w3.org/1999/xlink" xmlns:shaper="http://www.shapertools.com/namespaces/shaper" shaper:fusionaddin="version:1.8.0" width="15.5cm" height="8.6574796cm" version="1.1" x="0cm" y="0cm" viewBox="0 0 15.5 8.6574796" enable-background="new 0 0 15.5 8.6574796" xml:space="preserve"><path d="M7.75,1.6787399 A0.2,0.2 270 0,0 7.55,1.8787399 L7.55,2.2287399 A0.2,0.2 180 0,0 7.75,2.4287399 L7.75,4.3287398 -7.75,4.3287398 -7.75,2.4287399 A0.2,0.2 90 0,0 -7.55,2.2287399 L-7.55,1.8787399 A0.2,0.2 0 0,0 -7.75,1.6787399 L-7.75,-1.5212601 A0.2,0.2 90 0,0 -7.55,-1.7212601 L-7.55,-2.0712601 A0.2,0.2 0 0,0 -7.75,-2.2712601 L-7.75,-4.3287398 7.75,-4.3287398 7.75,-2.2712601 A0.2,0.2 270 0,0 7.55,-2.0712601 L7.55,-1.7212601 A0.2,0.2 180 0,0 7.75,-1.5212601 L7.75,1.6787399z" transform="matrix(1,0,0,-1,7.75,4.3287398)" fill="rgb(0,0,0)" stroke-linecap="round" stroke-linejoin="round" /><path d="M6.1618,3.8787399 A0.2,0.2 0 0,0 6.0618,3.7055348 L4.797869,2.9758039 A0.2,0.2 300 0,0 4.497869,3.149009 L4.497869,3.8787399 6.1618,3.8787399z" transform="matrix(1,0,0,-1,7.75,4.3287398)" fill="rgb(255,255,255)" stroke="rgb(0,0,0)" stroke-width="0.0010cm" stroke-linecap="round" stroke-linejoin="round" /><path d="M-4.4978551,3.8787399 L-4.4978551,3.149009 A0.2,0.2 0 0,0 -4.7978551,2.9758039 L-6.0617861,3.7055348 A0.2,0.2 240 0,0 -6.1617861,3.8787399 L-4.4978551,3.8787399z" transform="matrix(1,0,0,-1,7.75,4.3287398)" fill="rgb(255,255,255)" stroke="rgb(0,0,0)" stroke-width="0.0010cm" stroke-linecap="round" stroke-linejoin="round" /><path d="M4.277869,3.8787399 L4.277869,3.149009 A0.2,0.2 0 0,0 3.977869,2.9758039 L2.713938,3.7055348 A0.2,0.2 240 0,0 2.613938,3.8787399 L4.277869,3.8787399z" transform="matrix(1,0,0,-1,7.75,4.3287398)" fill="rgb(255,255,255)" stroke="rgb(0,0,0)" stroke-width="0.0010cm" stroke-linecap="round" stroke-linejoin="round" /><path d="M-4.2778551,3.8787399 L-2.6139241,3.8787399 A0.2,0.2 0 0,0 -2.7139241,3.7055348 L-3.9778551,2.9758039 A0.2,0.2 300 0,0 -4.2778551,3.149009 L-4.2778551,3.8787399z" transform="matrix(1,0,0,-1,7.75,4.3287398)" fill="rgb(255,255,255)" stroke="rgb(0,0,0)" stroke-width="0.0010cm" stroke-linecap="round" stroke-linejoin="round" /><path d="M1.773938,3.8787399 A0.2,0.2 0 0,0 1.673938,3.7055348 L0.4100069,2.9758039 A0.2,0.2 300 0,0 0.1100069,3.149009 L0.1100069,3.8787399 1.773938,3.8787399z" transform="matrix(1,0,0,-1,7.75,4.3287398)" fill="rgb(255,255,255)" stroke="rgb(0,0,0)" stroke-width="0.0010cm" stroke-linecap="round" stroke-linejoin="round" /><path d="M-0.1099931,3.8787399 L-0.1099931,3.149009 A0.2,0.2 0 0,0 -0.4099931,2.9758039 L-1.6739241,3.7055348 A0.2,0.2 240 0,0 -1.7739241,3.8787399 L-0.1099931,3.8787399z" transform="matrix(1,0,0,-1,7.75,4.3287398)" fill="rgb(255,255,255)" stroke="rgb(0,0,0)" stroke-width="0.0010cm" stroke-linecap="round" stroke-linejoin="round" /><path d="M0.1100069,-3.7212601 L0.1100069,-2.9915292 A0.2,0.2 180 0,0 0.4100069,-2.8183241 L1.673938,-3.548055 A0.2,0.2 60 0,0 1.773938,-3.7212601 L0.1100069,-3.7212601z" transform="matrix(1,0,0,-1,7.75,4.3287398)" fill="rgb(255,255,255)" stroke="rgb(0,0,0)" stroke-width="0.0010cm" stroke-linecap="round" stroke-linejoin="round" /><path d="M-0.1099931,-3.7212601 L-1.7739241,-3.7212601 A0.2,0.2 180 0,0 -1.6739241,-3.548055 L-0.4099931,-2.8183241 A0.2,0.2 120 0,0 -0.1099931,-2.9915292 L-0.1099931,-3.7212601z" transform="matrix(1,0,0,-1,7.75,4.3287398)" fill="rgb(255,255,255)" stroke="rgb(0,0,0)" stroke-width="0.0010cm" stroke-linecap="round" stroke-linejoin="round" /><path d="M2.613938,-3.7212601 A0.2,0.2 180 0,0 2.713938,-3.548055 L3.977869,-2.8183241 A0.2,0.2 120 0,0 4.277869,-2.9915292 L4.277869,-3.7212601 2.613938,-3.7212601z" transform="matrix(1,0,0,-1,7.75,4.3287398)" fill="rgb(255,255,255)" stroke="rgb(0,0,0)" stroke-width="0.0010cm" stroke-linecap="round" stroke-linejoin="round" /><path d="M4.497869,-3.7212601 L4.497869,-2.9915292 A0.2,0.2 180 0,0 4.797869,-2.8183241 L6.0618,-3.548055 A0.2,0.2 60 0,0 6.1618,-3.7212601 L4.497869,-3.7212601z" transform="matrix(1,0,0,-1,7.75,4.3287398)" fill="rgb(255,255,255)" stroke="rgb(0,0,0)" stroke-width="0.0010cm" stroke-linecap="round" stroke-linejoin="round" /><path d="M-2.6139241,-3.7212601 L-4.2778551,-3.7212601 -4.2778551,-2.9915292 A0.2,0.2 180 0,0 -3.9778551,-2.8183241 L-2.7139241,-3.548055 A0.2,0.2 60 0,0 -2.6139241,-3.7212601z" transform="matrix(1,0,0,-1,7.75,4.3287398)" fill="rgb(255,255,255)" stroke="rgb(0,0,0)" stroke-width="0.0010cm" stroke-linecap="round" stroke-linejoin="round" /><path d="M-4.4978551,-3.7212601 L-6.1617861,-3.7212601 A0.2,0.2 180 0,0 -6.0617861,-3.548055 L-4.7978551,-2.8183241 A0.2,0.2 120 0,0 -4.4978551,-2.9915292 L-4.4978551,-3.7212601z" transform="matrix(1,0,0,-1,7.75,4.3287398)" fill="rgb(255,255,255)" stroke="rgb(0,0,0)" stroke-width="0.0010cm" stroke-linecap="round" stroke-linejoin="round" /><path d="M6.4718,-3.1843244 A0.2,0.2 0 0,0 6.1718,-3.3575294 L4.907869,-2.6277985 A0.2,0.2 240 0,0 4.907869,-2.2813884 L6.1718,-1.5516574 A0.2,0.2 120 0,0 6.4718,-1.7248625 L6.4718,-3.1843244z" transform="matrix(1,0,0,-1,7.75,4.3287398)" fill="rgb(255,255,255)" stroke="rgb(0,0,0)" stroke-width="0.0010cm" stroke-linecap="round" stroke-linejoin="round" /><path d="M6.4718,-0.650991 A0.2,0.2 0 0,0 6.1718,-0.8241961 L4.907869,-0.0944652 A0.2,0.2 240 0,0 4.907869,0.251945 L6.1718,0.9816759 A0.2,0.2 120 0,0 6.4718,0.8084708 L6.4718,-0.650991z" transform="matrix(1,0,0,-1,7.75,4.3287398)" fill="rgb(255,255,255)" stroke="rgb(0,0,0)" stroke-width="0.0010cm" stroke-linecap="round" stroke-linejoin="round" /><path d="M6.4718,1.8823423 A0.2,0.2 0 0,0 6.1718,1.7091372 L4.907869,2.4388681 A0.2,0.2 240 0,0 4.907869,2.7852783 L6.1718,3.5150092 A0.2,0.2 120 0,0 6.4718,3.3418041 L6.4718,1.8823423z" transform="matrix(1,0,0,-1,7.75,4.3287398)" fill="rgb(255,255,255)" stroke="rgb(0,0,0)" stroke-width="0.0010cm" stroke-linecap="round" stroke-linejoin="round" /><path d="M-6.1717861,0.9816759 L-4.9078551,0.251945 A0.2,0.2 60 0,0 -4.9078551,-0.0944652 L-6.1717861,-0.8241961 A0.2,0.2 300 0,0 -6.4717861,-0.650991 L-6.4717861,0.8084708 A0.2,0.2 180 0,0 -6.1717861,0.9816759z" transform="matrix(1,0,0,-1,7.75,4.3287398)" fill="rgb(255,255,255)" stroke="rgb(0,0,0)" stroke-width="0.0010cm" stroke-linecap="round" stroke-linejoin="round" /><path d="M-6.4717861,-3.1843244 L-6.4717861,-1.7248625 A0.2,0.2 180 0,0 -6.1717861,-1.5516574 L-4.9078551,-2.2813884 A0.2,0.2 60 0,0 -4.9078551,-2.6277985 L-6.1717861,-3.3575294 A0.2,0.2 300 0,0 -6.4717861,-3.1843244z" transform="matrix(1,0,0,-1,7.75,4.3287398)" fill="rgb(255,255,255)" stroke="rgb(0,0,0)" stroke-width="0.0010cm" stroke-linecap="round" stroke-linejoin="round" /><path d="M-6.0617861,-1.0147217 L-4.7978551,-0.2849908 A0.2,0.2 120 0,0 -4.4978551,-0.4581959 L-4.4978551,-1.9176577 A0.2,0.2 0 0,0 -4.7978551,-2.0908628 L-6.0617861,-1.3611319 A0.2,0.2 240 0,0 -6.0617861,-1.0147217z" transform="matrix(1,0,0,-1,7.75,4.3287398)" fill="rgb(255,255,255)" stroke="rgb(0,0,0)" stroke-width="0.0010cm" stroke-linecap="round" stroke-linejoin="round" /><path d="M0.1100069,-1.9176577 L0.1100069,-0.4581959 A0.2,0.2 180 0,0 0.4100069,-0.2849908 L1.673938,-1.0147217 A0.2,0.2 60 0,0 1.673938,-1.3611319 L0.4100069,-2.0908628 A0.2,0.2 300 0,0 0.1100069,-1.9176577z" transform="matrix(1,0,0,-1,7.75,4.3287398)" fill="rgb(255,255,255)" stroke="rgb(0,0,0)" stroke-width="0.0010cm" stroke-linecap="round" stroke-linejoin="round" /><path d="M1.783938,-3.3575294 L0.5200069,-2.6277985 A0.2,0.2 240 0,0 0.5200069,-2.2813884 L1.783938,-1.5516574 A0.2,0.2 120 0,0 2.083938,-1.7248625 L2.083938,-3.1843244 A0.2,0.2 0 0,0 1.783938,-3.3575294z" transform="matrix(1,0,0,-1,7.75,4.3287398)" fill="rgb(255,255,255)" stroke="rgb(0,0,0)" stroke-width="0.0010cm" stroke-linecap="round" stroke-linejoin="round" /><path d="M-0.1099931,-0.4581959 L-0.1099931,-1.9176577 A0.2,0.2 0 0,0 -0.4099931,-2.0908628 L-1.6739241,-1.3611319 A0.2,0.2 240 0,0 -1.6739241,-1.0147217 L-0.4099931,-0.2849908 A0.2,0.2 120 0,0 -0.1099931,-0.4581959z" transform="matrix(1,0,0,-1,7.75,4.3287398)" fill="rgb(255,255,255)" stroke="rgb(0,0,0)" stroke-width="0.0010cm" stroke-linecap="round" stroke-linejoin="round" /><path d="M-0.5199931,-2.6277985 L-1.7839241,-3.3575294 A0.2,0.2 300 0,0 -2.0839241,-3.1843244 L-2.0839241,-1.7248625 A0.2,0.2 180 0,0 -1.7839241,-1.5516574 L-0.5199931,-2.2813884 A0.2,0.2 60 0,0 -0.5199931,-2.6277985z" transform="matrix(1,0,0,-1,7.75,4.3287398)" fill="rgb(255,255,255)" stroke="rgb(0,0,0)" stroke-width="0.0010cm" stroke-linecap="round" stroke-linejoin="round" /><path d="M-2.3039241,3.3418041 L-2.3039241,1.8823423 A0.2,0.2 0 0,0 -2.6039241,1.7091372 L-3.8678551,2.4388681 A0.2,0.2 240 0,0 -3.8678551,2.7852783 L-2.6039241,3.5150092 A0.2,0.2 120 0,0 -2.3039241,3.3418041z" transform="matrix(1,0,0,-1,7.75,4.3287398)" fill="rgb(255,255,255)" stroke="rgb(0,0,0)" stroke-width="0.0010cm" stroke-linecap="round" stroke-linejoin="round" /><path d="M-2.0839241,1.8823423 L-2.0839241,3.3418041 A0.2,0.2 180 0,0 -1.7839241,3.5150092 L-0.5199931,2.7852783 A0.2,0.2 60 0,0 -0.5199931,2.4388681 L-1.7839241,1.7091372 A0.2,0.2 300 0,0 -2.0839241,1.8823423z" transform="matrix(1,0,0,-1,7.75,4.3287398)" fill="rgb(255,255,255)" stroke="rgb(0,0,0)" stroke-width="0.0010cm" stroke-linecap="round" stroke-linejoin="round" /><path d="M2.083938,3.3418041 L2.083938,1.8823423 A0.2,0.2 0 0,0 1.783938,1.7091372 L0.5200069,2.4388681 A0.2,0.2 240 0,0 0.5200069,2.7852783 L1.783938,3.5150092 A0.2,0.2 120 0,0 2.083938,3.3418041z" transform="matrix(1,0,0,-1,7.75,4.3287398)" fill="rgb(255,255,255)" stroke="rgb(0,0,0)" stroke-width="0.0010cm" stroke-linecap="round" stroke-linejoin="round" /><path d="M2.303938,1.8823423 L2.303938,3.3418041 A0.2,0.2 180 0,0 2.603938,3.5150092 L3.867869,2.7852783 A0.2,0.2 60 0,0 3.867869,2.4388681 L2.603938,1.7091372 A0.2,0.2 300 0,0 2.303938,1.8823423z" transform="matrix(1,0,0,-1,7.75,4.3287398)" fill="rgb(255,255,255)" stroke="rgb(0,0,0)" stroke-width="0.0010cm" stroke-linecap="round" stroke-linejoin="round" /><path d="M-3.9778551,-0.2849908 L-2.7139241,-1.0147217 A0.2,0.2 60 0,0 -2.7139241,-1.3611319 L-3.9778551,-2.0908628 A0.2,0.2 300 0,0 -4.2778551,-1.9176577 L-4.2778551,-0.4581959 A0.2,0.2 180 0,0 -3.9778551,-0.2849908z" transform="matrix(1,0,0,-1,7.75,4.3287398)" fill="rgb(255,255,255)" stroke="rgb(0,0,0)" stroke-width="0.0010cm" stroke-linecap="round" stroke-linejoin="round" /><path d="M-2.3039241,-1.7248625 L-2.3039241,-3.1843244 A0.2,0.2 0 0,0 -2.6039241,-3.3575294 L-3.8678551,-2.6277985 A0.2,0.2 240 0,0 -3.8678551,-2.2813884 L-2.6039241,-1.5516574 A0.2,0.2 120 0,0 -2.3039241,-1.7248625z" transform="matrix(1,0,0,-1,7.75,4.3287398)" fill="rgb(255,255,255)" stroke="rgb(0,0,0)" stroke-width="0.0010cm" stroke-linecap="round" stroke-linejoin="round" /><path d="M-4.7978551,0.4424706 L-6.0617861,1.1722015 A0.2,0.2 240 0,0 -6.0617861,1.5186116 L-4.7978551,2.2483426 A0.2,0.2 120 0,0 -4.4978551,2.0751375 L-4.4978551,0.6156756 A0.2,0.2 0 0,0 -4.7978551,0.4424706z" transform="matrix(1,0,0,-1,7.75,4.3287398)" fill="rgb(255,255,255)" stroke="rgb(0,0,0)" stroke-width="0.0010cm" stroke-linecap="round" stroke-linejoin="round" /><path d="M-2.7139241,1.1722015 L-3.9778551,0.4424706 A0.2,0.2 300 0,0 -4.2778551,0.6156756 L-4.2778551,2.0751375 A0.2,0.2 180 0,0 -3.9778551,2.2483426 L-2.7139241,1.5186116 A0.2,0.2 60 0,0 -2.7139241,1.1722015z" transform="matrix(1,0,0,-1,7.75,4.3287398)" fill="rgb(255,255,255)" stroke="rgb(0,0,0)" stroke-width="0.0010cm" stroke-linecap="round" stroke-linejoin="round" /><path d="M-1.7839241,0.9816759 L-0.5199931,0.251945 A0.2,0.2 60 0,0 -0.5199931,-0.0944652 L-1.7839241,-0.8241961 A0.2,0.2 300 0,0 -2.0839241,-0.650991 L-2.0839241,0.8084708 A0.2,0.2 180 0,0 -1.7839241,0.9816759z" transform="matrix(1,0,0,-1,7.75,4.3287398)" fill="rgb(255,255,255)" stroke="rgb(0,0,0)" stroke-width="0.0010cm" stroke-linecap="round" stroke-linejoin="round" /><path d="M-3.8678551,0.251945 L-2.6039241,0.9816759 A0.2,0.2 120 0,0 -2.3039241,0.8084708 L-2.3039241,-0.650991 A0.2,0.2 0 0,0 -2.6039241,-0.8241961 L-3.8678551,-0.0944652 A0.2,0.2 240 0,0 -3.8678551,0.251945z" transform="matrix(1,0,0,-1,7.75,4.3287398)" fill="rgb(255,255,255)" stroke="rgb(0,0,0)" stroke-width="0.0010cm" stroke-linecap="round" stroke-linejoin="round" /><path d="M-4.9078551,2.4388681 L-6.1717861,1.7091372 A0.2,0.2 300 0,0 -6.4717861,1.8823423 L-6.4717861,3.3418041 A0.2,0.2 180 0,0 -6.1717861,3.5150092 L-4.9078551,2.7852783 A0.2,0.2 60 0,0 -4.9078551,2.4388681z" transform="matrix(1,0,0,-1,7.75,4.3287398)" fill="rgb(255,255,255)" stroke="rgb(0,0,0)" stroke-width="0.0010cm" stroke-linecap="round" stroke-linejoin="round" /><path d="M3.867869,-2.6277985 L2.603938,-3.3575294 A0.2,0.2 300 0,0 2.303938,-3.1843244 L2.303938,-1.7248625 A0.2,0.2 180 0,0 2.603938,-1.5516574 L3.867869,-2.2813884 A0.2,0.2 60 0,0 3.867869,-2.6277985z" transform="matrix(1,0,0,-1,7.75,4.3287398)" fill="rgb(255,255,255)" stroke="rgb(0,0,0)" stroke-width="0.0010cm" stroke-linecap="round" stroke-linejoin="round" /><path d="M4.277869,-0.4581959 L4.277869,-1.9176577 A0.2,0.2 0 0,0 3.977869,-2.0908628 L2.713938,-1.3611319 A0.2,0.2 240 0,0 2.713938,-1.0147217 L3.977869,-0.2849908 A0.2,0.2 120 0,0 4.277869,-0.4581959z" transform="matrix(1,0,0,-1,7.75,4.3287398)" fill="rgb(255,255,255)" stroke="rgb(0,0,0)" stroke-width="0.0010cm" stroke-linecap="round" stroke-linejoin="round" /><path d="M4.497869,-1.9176577 L4.497869,-0.4581959 A0.2,0.2 180 0,0 4.797869,-0.2849908 L6.0618,-1.0147217 A0.2,0.2 60 0,0 6.0618,-1.3611319 L4.797869,-2.0908628 A0.2,0.2 300 0,0 4.497869,-1.9176577z" transform="matrix(1,0,0,-1,7.75,4.3287398)" fill="rgb(255,255,255)" stroke="rgb(0,0,0)" stroke-width="0.0010cm" stroke-linecap="round" stroke-linejoin="round" /><path d="M-0.4099931,0.4424706 L-1.6739241,1.1722015 A0.2,0.2 240 0,0 -1.6739241,1.5186116 L-0.4099931,2.2483426 A0.2,0.2 120 0,0 -0.1099931,2.0751375 L-0.1099931,0.6156756 A0.2,0.2 0 0,0 -0.4099931,0.4424706z" transform="matrix(1,0,0,-1,7.75,4.3287398)" fill="rgb(255,255,255)" stroke="rgb(0,0,0)" stroke-width="0.0010cm" stroke-linecap="round" stroke-linejoin="round" /><path d="M1.673938,1.1722015 L0.4100069,0.4424706 A0.2,0.2 300 0,0 0.1100069,0.6156756 L0.1100069,2.0751375 A0.2,0.2 180 0,0 0.4100069,2.2483426 L1.673938,1.5186116 A0.2,0.2 60 0,0 1.673938,1.1722015z" transform="matrix(1,0,0,-1,7.75,4.3287398)" fill="rgb(255,255,255)" stroke="rgb(0,0,0)" stroke-width="0.0010cm" stroke-linecap="round" stroke-linejoin="round" /><path d="M2.603938,0.9816759 L3.867869,0.251945 A0.2,0.2 60 0,0 3.867869,-0.0944652 L2.603938,-0.8241961 A0.2,0.2 300 0,0 2.303938,-0.650991 L2.303938,0.8084708 A0.2,0.2 180 0,0 2.603938,0.9816759z" transform="matrix(1,0,0,-1,7.75,4.3287398)" fill="rgb(255,255,255)" stroke="rgb(0,0,0)" stroke-width="0.0010cm" stroke-linecap="round" stroke-linejoin="round" /><path d="M0.5200069,0.251945 L1.783938,0.9816759 A0.2,0.2 120 0,0 2.083938,0.8084708 L2.083938,-0.650991 A0.2,0.2 0 0,0 1.783938,-0.8241961 L0.5200069,-0.0944652 A0.2,0.2 240 0,0 0.5200069,0.251945z" transform="matrix(1,0,0,-1,7.75,4.3287398)" fill="rgb(255,255,255)" stroke="rgb(0,0,0)" stroke-width="0.0010cm" stroke-linecap="round" stroke-linejoin="round" /><path d="M3.977869,0.4424706 L2.713938,1.1722015 A0.2,0.2 240 0,0 2.713938,1.5186116 L3.977869,2.2483426 A0.2,0.2 120 0,0 4.277869,2.0751375 L4.277869,0.6156756 A0.2,0.2 0 0,0 3.977869,0.4424706z" transform="matrix(1,0,0,-1,7.75,4.3287398)" fill="rgb(255,255,255)" stroke="rgb(0,0,0)" stroke-width="0.0010cm" stroke-linecap="round" stroke-linejoin="round" /><path d="M6.0618,1.1722015 L4.797869,0.4424706 A0.2,0.2 300 0,0 4.497869,0.6156756 L4.497869,2.0751375 A0.2,0.2 180 0,0 4.797869,2.2483426 L6.0618,1.5186116 A0.2,0.2 60 0,0 6.0618,1.1722015z" transform="matrix(1,0,0,-1,7.75,4.3287398)" fill="rgb(255,255,255)" stroke="rgb(0,0,0)" stroke-width="0.0010cm" stroke-linecap="round" stroke-linejoin="round" /></svg>