  0
SECTION
  2
HEADER
  9
$ACADVER
  1
AC1014
  9
$HANDSEED
  5
FFFF
  9
$INSUNITS
 70
     4
  9
$MEASUREMENT
 70
     1
  0
ENDSEC
  0
SECTION
  2
TABLES
  0
TABLE
  2
VPORT
  5
8
330
0
100
AcDbSymbolTable
 70
     4
  0
VPORT
  5
2E
330
8
100
AcDbSymbolTableRecord
100
AcDbViewportTableRecord
  2
*ACTIVE
 70
     0
 10
0.0
 20
0.0
 11
1.0
 21
1.0
 12
210.0
 22
148.5
 13
0.0
 23
0.0
 14
10.0
 24
10.0
 15
10.0
 25
10.0
 16
0.0
 26
0.0
 36
1.0
 17
0.0
 27
0.0
 37
0.0
 40
341.0
 41
1.24
 42
50.0
 43
0.0
 44
0.0
 50
0.0
 51
0.0
 71
     0
 72
   100
 73
     1
 74
     3
 75
     0
 76
     0
 77
     0
 78
     0
  0
ENDTAB
  0
TABLE
  2
LTYPE
  5
5
330
0
100
AcDbSymbolTable
 70
     1
  0
LTYPE
  5
14
330
5
100
AcDbSymbolTableRecord
100
AcDbLinetypeTableRecord
  2
BYBLOCK
 70
     0
  3

 72
    65
 73
     0
 40
0.0
  0
LTYPE
  5
15
330
5
100
AcDbSymbolTableRecord
100
AcDbLinetypeTableRecord
  2
BYLAYER
 70
     0
  3

 72
    65
 73
     0
 40
0.0
  0
LTYPE
  5
16
330
5
100
AcDbSymbolTableRecord
100
AcDbLinetypeTableRecord
  2
CONTINUOUS
 70
     0
  3
Solid line
 72
    65
 73
     0
 40
0.0
  0
ENDTAB
  0
TABLE
  2
LAYER
  5
2
100
AcDbSymbolTable
 70
2
  0
LAYER
  5
50
100
AcDbSymbolTableRecord
100
AcDbLayerTableRecord
  2
0
 70
0
  6
CONTINUOUS
  0
LAYER
  5
51
100
AcDbSymbolTableRecord
100
AcDbLayerTableRecord
  2
Layer_1
 70
0
  6
CONTINUOUS
  0
ENDTAB
  0
TABLE
  2
STYLE
  5
3
330
0
100
AcDbSymbolTable
 70
     1
  0
STYLE
  5
11
330
3
100
AcDbSymbolTableRecord
100
AcDbTextStyleTableRecord
  2
STANDARD
 70
     0
 40
0.0
 41
1.0
 50
0.0
 71
     0
 42
2.5
  3
txt
  4

  0
ENDTAB
  0
TABLE
  2
VIEW
  5
6
330
0
100
AcDbSymbolTable
 70
     0
  0
ENDTAB
  0
TABLE
  2
UCS
  5
7
330
0
100
AcDbSymbolTable
 70
     0
  0
ENDTAB
  0
TABLE
  2
APPID
  5
9
330
0
100
AcDbSymbolTable
 70
     2
  0
APPID
  5
12
330
9
100
AcDbSymbolTableRecord
100
AcDbRegAppTableRecord
  2
ACAD
 70
     0
  0
ENDTAB
  0
TABLE
  2
DIMSTYLE
  5
A
330
0
100
AcDbSymbolTable
 70
     1
  0
DIMSTYLE
105
27
330
A
100
AcDbSymbolTableRecord
100
AcDbDimStyleTableRecord
  2
ISO-25
 70
     0
  3

  4

  5

  6

  7

 40
1.0
 41
2.5
 42
0.625
 43
3.75
 44
1.25
 45
0.0
 46
0.0
 47
0.0
 48
0.0
140
2.5
141
2.5
142
0.0
143
0.03937007874016
144
1.0
145
0.0
146
1.0
147
0.625
 71
     0
 72
     0
 73
     0
 74
     0
 75
     0
 76
     0
 77
     1
 78
     8
170
     0
171
     3
172
     1
173
     0
174
     0
175
     0
176
     0
177
     0
178
     0
270
     2
271
     2
272
     2
273
     2
274
     3
340
11
275
     0
280
     0
281
     0
282
     0
283
     0
284
     8
285
     0
286
     0
287
     3
288
     0
  0
ENDTAB
  0
TABLE
  2
BLOCK_RECORD
  5
1
330
0
100
AcDbSymbolTable
 70
     1
  0
BLOCK_RECORD
  5
1F
330
1
100
AcDbSymbolTableRecord
100
AcDbBlockTableRecord
  2
*MODEL_SPACE
  0
BLOCK_RECORD
  5
1B
330
1
100
AcDbSymbolTableRecord
100
AcDbBlockTableRecord
  2
*PAPER_SPACE
  0
ENDTAB
  0
ENDSEC
  0
SECTION
  2
BLOCKS
  0
BLOCK
  5
20
330
1F
100
AcDbEntity
  8
0
100
AcDbBlockBegin
  2
*MODEL_SPACE
 70
     0
 10
0.0
 20
0.0
 30
0.0
  3
*MODEL_SPACE
  1

  0
ENDBLK
  5
21
330
1F
100
AcDbEntity
  8
0
100
AcDbBlockEnd
  0
BLOCK
  5
1C
330
1B
100
AcDbEntity
 67
     1
  8
0
100
AcDbBlockBegin
  2
*PAPER_SPACE
  1

  0
ENDBLK
  5
1D
330
1B
100
AcDbEntity
 67
     1
  8
0
100
AcDbBlockEnd
  0
ENDSEC
  0
SECTION
  2
ENTITIES
  0
SPLINE
  5
100
100
AcDbEntity
  8
Layer_1
 62
7
100
AcDbSpline
 70
8
 71
3
 72
8
 73
4
 74
0
 40
0
 40
0
 40
0
 40
0
 40
1
 40
1
 40
1
 40
1
 10
182.539600
 20
165.356001
 30
0.0
 10
182.009167
 20
165.356001
 30
0.0
 10
181.500459
 20
165.566715
 30
0.0
 10
181.125386
 20
165.941787
 30
0.0
  0
SPLINE
  5
101
100
AcDbEntity
  8
Layer_1
 62
7
100
AcDbSpline
 70
8
 71
3
 72
8
 73
4
 74
0
 40
0
 40
0
 40
0
 40
0
 40
1
 40
1
 40
1
 40
1
 10
181.125386
 20
165.941787
 30
0.0
 10
180.750314
 20
166.316860
 30
0.0
 10
180.539600
 20
166.825568
 30
0.0
 10
180.539600
 20
167.356001
 30
0.0
  0
SPLINE
  5
102
100
AcDbEntity
  8
Layer_1
 62
7
100
AcDbSpline
 70
8
 71
3
 72
8
 73
4
 74
0
 40
0
 40
0
 40
0
 40
0
 40
1
 40
1
 40
1
 40
1
 10
180.539600
 20
170.856001
 30
0.0
 10
180.539600
 20
171.386434
 30
0.0
 10
180.750314
 20
171.895142
 30
0.0
 10
181.125386
 20
172.270215
 30
0.0
  0
SPLINE
  5
103
100
AcDbEntity
  8
Layer_1
 62
7
100
AcDbSpline
 70
8
 71
3
 72
8
 73
4
 74
0
 40
0
 40
0
 40
0
 40
0
 40
1
 40
1
 40
1
 40
1
 10
181.125386
 20
172.270215
 30
0.0
 10
181.500459
 20
172.645287
 30
0.0
 10
182.009167
 20
172.856001
 30
0.0
 10
182.539600
 20
172.856001
 30
0.0
  0
LWPOLYLINE
  5
104
100
AcDbEntity
  8
Layer_1
 62
7
100
AcDbPolyline
 90
2
 70
0
 10
180.539600
 20
167.356001
 30
0.0
 10
180.539600
 20
170.856001
 30
0.0
  0
SPLINE
  5
105
100
AcDbEntity
  8
Layer_1
 62
7
100
AcDbSpline
 70
8
 71
3
 72
8
 73
4
 74
0
 40
0
 40
0
 40
0
 40
0
 40
1
 40
1
 40
1
 40
1
 10
27.539600
 20
172.856001
 30
0.0
 10
28.070033
 20
172.856001
 30
0.0
 10
28.578741
 20
172.645287
 30
0.0
 10
28.953814
 20
172.270215
 30
0.0
  0
SPLINE
  5
106
100
AcDbEntity
  8
Layer_1
 62
7
100
AcDbSpline
 70
8
 71
3
 72
8
 73
4
 74
0
 40
0
 40
0
 40
0
 40
0
 40
1
 40
1
 40
1
 40
1
 10
28.953814
 20
172.270215
 30
0.0
 10
29.328886
 20
171.895142
 30
0.0
 10
29.539600
 20
171.386434
 30
0.0
 10
29.539600
 20
170.856001
 30
0.0
  0
LWPOLYLINE
  5
107
100
AcDbEntity
  8
Layer_1
 62
7
100
AcDbPolyline
 90
4
 70
0
 10
182.539600
 20
172.856001
 30
0.0
 10
182.539600
 20
191.856000
 30
0.0
 10
27.539600
 20
191.856000
 30
0.0
 10
27.539600
 20
172.856001
 30
0.0
  0
SPLINE
  5
108
100
AcDbEntity
  8
Layer_1
 62
7
100
AcDbSpline
 70
8
 71
3
 72
8
 73
4
 74
0
 40
0
 40
0
 40
0
 40
0
 40
1
 40
1
 40
1
 40
1
 10
29.539600
 20
167.356001
 30
0.0
 10
29.539600
 20
166.825568
 30
0.0
 10
29.328886
 20
166.316860
 30
0.0
 10
28.953814
 20
165.941787
 30
0.0
  0
SPLINE
  5
109
100
AcDbEntity
  8
Layer_1
 62
7
100
AcDbSpline
 70
8
 71
3
 72
8
 73
4
 74
0
 40
0
 40
0
 40
0
 40
0
 40
1
 40
1
 40
1
 40
1
 10
28.953814
 20
165.941787
 30
0.0
 10
28.578741
 20
165.566715
 30
0.0
 10
28.070033
 20
165.356001
 30
0.0
 10
27.539600
 20
165.356001
 30
0.0
  0
LWPOLYLINE
  5
10a
100
AcDbEntity
  8
Layer_1
 62
7
100
AcDbPolyline
 90
2
 70
0
 10
29.539600
 20
170.856001
 30
0.0
 10
29.539600
 20
167.356001
 30
0.0
  0
SPLINE
  5
10b
100
AcDbEntity
  8
Layer_1
 62
7
100
AcDbSpline
 70
8
 71
3
 72
8
 73
4
 74
0
 40
0
 40
0
 40
0
 40
0
 40
1
 40
1
 40
1
 40
1
 10
27.539600
 20
133.356001
 30
0.0
 10
28.070033
 20
133.356001
 30
0.0
 10
28.578741
 20
133.145287
 30
0.0
 10
28.953814
 20
132.770215
 30
0.0
  0
SPLINE
  5
10c
100
AcDbEntity
  8
Layer_1
 62
7
100
AcDbSpline
 70
8
 71
3
 72
8
 73
4
 74
0
 40
0
 40
0
 40
0
 40
0
 40
1
 40
1
 40
1
 40
1
 10
28.953814
 20
132.770215
 30
0.0
 10
29.328886
 20
132.395142
 30
0.0
 10
29.539600
 20
131.886434
 30
0.0
 10
29.539600
 20
131.356001
 30
0.0
  0
LWPOLYLINE
  5
10d
100
AcDbEntity
  8
Layer_1
 62
7
100
AcDbPolyline
 90
2
 70
0
 10
27.539600
 20
165.356001
 30
0.0
 10
27.539600
 20
133.356001
 30
0.0
  0
SPLINE
  5
10e
100
AcDbEntity
  8
Layer_1
 62
7
100
AcDbSpline
 70
8
 71
3
 72
8
 73
4
 74
0
 40
0
 40
0
 40
0
 40
0
 40
1
 40
1
 40
1
 40
1
 10
29.539600
 20
127.856001
 30
0.0
 10
29.539600
 20
127.325568
 30
0.0
 10
29.328886
 20
126.816860
 30
0.0
 10
28.953814
 20
126.441787
 30
0.0
  0
SPLINE
  5
10f
100
AcDbEntity
  8
Layer_1
 62
7
100
AcDbSpline
 70
8
 71
3
 72
8
 73
4
 74
0
 40
0
 40
0
 40
0
 40
0
 40
1
 40
1
 40
1
 40
1
 10
28.953814
 20
126.441787
 30
0.0
 10
28.578741
 20
126.066715
 30
0.0
 10
28.070033
 20
125.856001
 30
0.0
 10
27.539600
 20
125.856001
 30
0.0
  0
LWPOLYLINE
  5
110
100
AcDbEntity
  8
Layer_1
 62
7
100
AcDbPolyline
 90
2
 70
0
 10
29.539600
 20
131.356001
 30
0.0
 10
29.539600
 20
127.856001
 30
0.0
  0
SPLINE
  5
111
100
AcDbEntity
  8
Layer_1
 62
7
100
AcDbSpline
 70
8
 71
3
 72
8
 73
4
 74
0
 40
0
 40
0
 40
0
 40
0
 40
1
 40
1
 40
1
 40
1
 10
182.539600
 20
125.856001
 30
0.0
 10
182.009167
 20
125.856001
 30
0.0
 10
181.500459
 20
126.066715
 30
0.0
 10
181.125386
 20
126.441787
 30
0.0
  0
SPLINE
  5
112
100
AcDbEntity
  8
Layer_1
 62
7
100
AcDbSpline
 70
8
 71
3
 72
8
 73
4
 74
0
 40
0
 40
0
 40
0
 40
0
 40
1
 40
1
 40
1
 40
1
 10
181.125386
 20
126.441787
 30
0.0
 10
180.750314
 20
126.816860
 30
0.0
 10
180.539600
 20
127.325568
 30
0.0
 10
180.539600
 20
127.856001
 30
0.0
  0
LWPOLYLINE
  5
113
100
AcDbEntity
  8
Layer_1
 62
7
100
AcDbPolyline
 90
4
 70
0
 10
27.539600
 20
125.856001
 30
0.0
 10
27.539600
 20
105.281204
 30
0.0
 10
182.539600
 20
105.281204
 30
0.0
 10
182.539600
 20
125.856001
 30
0.0
  0
SPLINE
  5
114
100
AcDbEntity
  8
Layer_1
 62
7
100
AcDbSpline
 70
8
 71
3
 72
8
 73
4
 74
0
 40
0
 40
0
 40
0
 40
0
 40
1
 40
1
 40
1
 40
1
 10
180.539600
 20
131.356001
 30
0.0
 10
180.539600
 20
131.886434
 30
0.0
 10
180.750314
 20
132.395142
 30
0.0
 10
181.125386
 20
132.770215
 30
0.0
  0
SPLINE
  5
115
100
AcDbEntity
  8
Layer_1
 62
7
100
AcDbSpline
 70
8
 71
3
 72
8
 73
4
 74
0
 40
0
 40
0
 40
0
 40
0
 40
1
 40
1
 40
1
 40
1
 10
181.125386
 20
132.770215
 30
0.0
 10
181.500459
 20
133.145287
 30
0.0
 10
182.009167
 20
133.356001
 30
0.0
 10
182.539600
 20
133.356001
 30
0.0
  0
LWPOLYLINE
  5
116
100
AcDbEntity
  8
Layer_1
 62
7
100
AcDbPolyline
 90
2
 70
0
 10
180.539600
 20
127.856001
 30
0.0
 10
180.539600
 20
131.356001
 30
0.0
  0
SPLINE
  5
117
100
AcDbEntity
  8
Layer_1
 62
7
100
AcDbSpline
 70
8
 71
3
 72
8
 73
4
 74
0
 40
0
 40
0
 40
0
 40
0
 40
1
 40
1
 40
1
 40
1
 10
166.657600
 20
187.356001
 30
0.0
 10
166.657600
 20
186.641470
 30
0.0
 10
166.276402
 20
185.981216
 30
0.0
 10
165.657600
 20
185.623950
 30
0.0
  0
LWPOLYLINE
  5
118
100
AcDbEntity
  8
Layer_1
 62
7
100
AcDbPolyline
 90
2
 70
0
 10
182.539600
 20
133.356001
 30
0.0
 10
182.539600
 20
165.356001
 30
0.0
  0
SPLINE
  5
119
100
AcDbEntity
  8
Layer_1
 62
7
100
AcDbSpline
 70
8
 71
3
 72
8
 73
4
 74
0
 40
0
 40
0
 40
0
 40
0
 40
1
 40
1
 40
1
 40
1
 10
153.018290
 20
178.326641
 30
0.0
 10
152.399488
 20
177.969375
 30
0.0
 10
151.637092
 20
177.969375
 30
0.0
 10
151.018290
 20
178.326641
 30
0.0
  0
SPLINE
  5
11a
100
AcDbEntity
  8
Layer_1
 62
7
100
AcDbSpline
 70
8
 71
3
 72
8
 73
4
 74
0
 40
0
 40
0
 40
0
 40
0
 40
1
 40
1
 40
1
 40
1
 10
151.018290
 20
178.326641
 30
0.0
 10
150.399488
 20
178.683907
 30
0.0
 10
150.018290
 20
179.344161
 30
0.0
 10
150.018290
 20
180.058692
 30
0.0
  0
LWPOLYLINE
  5
11b
100
AcDbEntity
  8
Layer_1
 62
7
100
AcDbPolyline
 90
2
 70
0
 10
165.657600
 20
185.623950
 30
0.0
 10
153.018290
 20
178.326641
 30
0.0
  0
LWPOLYLINE
  5
11c
100
AcDbEntity
  8
Layer_1
 62
7
100
AcDbPolyline
 90
3
 70
0
 10
150.018290
 20
180.058692
 30
0.0
 10
150.018290
 20
187.356001
 30
0.0
 10
166.657600
 20
187.356001
 30
0.0
  0
SPLINE
  5
11d
100
AcDbEntity
  8
Layer_1
 62
7
100
AcDbSpline
 70
8
 71
3
 72
8
 73
4
 74
0
 40
0
 40
0
 40
0
 40
0
 40
1
 40
1
 40
1
 40
1
 10
60.061049
 20
180.058692
 30
0.0
 10
60.061049
 20
179.344161
 30
0.0
 10
59.679851
 20
178.683907
 30
0.0
 10
59.061049
 20
178.326641
 30
0.0
  0
SPLINE
  5
11e
100
AcDbEntity
  8
Layer_1
 62
7
100
AcDbSpline
 70
8
 71
3
 72
8
 73
4
 74
0
 40
0
 40
0
 40
0
 40
0
 40
1
 40
1
 40
1
 40
1
 10
59.061049
 20
178.326641
 30
0.0
 10
58.442247
 20
177.969375
 30
0.0
 10
57.679851
 20
177.969375
 30
0.0
 10
57.061049
 20
178.326641
 30
0.0
  0
LWPOLYLINE
  5
11f
100
AcDbEntity
  8
Layer_1
 62
7
100
AcDbPolyline
 90
2
 70
0
 10
60.061049
 20
187.356001
 30
0.0
 10
60.061049
 20
180.058692
 30
0.0
  0
SPLINE
  5
120
100
AcDbEntity
  8
Layer_1
 62
7
100
AcDbSpline
 70
8
 71
3
 72
8
 73
4
 74
0
 40
0
 40
0
 40
0
 40
0
 40
1
 40
1
 40
1
 40
1
 10
44.421739
 20
185.623950
 30
0.0
 10
43.802937
 20
185.981216
 30
0.0
 10
43.421739
 20
186.641470
 30
0.0
 10
43.421739
 20
187.356001
 30
0.0
  0
LWPOLYLINE
  5
121
100
AcDbEntity
  8
Layer_1
 62
7
100
AcDbPolyline
 90
2
 70
0
 10
57.061049
 20
178.326641
 30
0.0
 10
44.421739
 20
185.623950
 30
0.0
  0
LWPOLYLINE
  5
122
100
AcDbEntity
  8
Layer_1
 62
7
100
AcDbPolyline
 90
2
 70
0
 10
43.421739
 20
187.356001
 30
0.0
 10
60.061049
 20
187.356001
 30
0.0
  0
SPLINE
  5
123
100
AcDbEntity
  8
Layer_1
 62
7
100
AcDbSpline
 70
8
 71
3
 72
8
 73
4
 74
0
 40
0
 40
0
 40
0
 40
0
 40
1
 40
1
 40
1
 40
1
 10
147.818290
 20
180.058692
 30
0.0
 10
147.818290
 20
179.344161
 30
0.0
 10
147.437092
 20
178.683907
 30
0.0
 10
146.818290
 20
178.326641
 30
0.0
  0
SPLINE
  5
124
100
AcDbEntity
  8
Layer_1
 62
7
100
AcDbSpline
 70
8
 71
3
 72
8
 73
4
 74
0
 40
0
 40
0
 40
0
 40
0
 40
1
 40
1
 40
1
 40
1
 10
146.818290
 20
178.326641
 30
0.0
 10
146.199488
 20
177.969375
 30
0.0
 10
145.437092
 20
177.969375
 30
0.0
 10
144.818290
 20
178.326641
 30
0.0
  0
LWPOLYLINE
  5
125
100
AcDbEntity
  8
Layer_1
 62
7
100
AcDbPolyline
 90
2
 70
0
 10
147.818290
 20
187.356001
 30
0.0
 10
147.818290
 20
180.058692
 30
0.0
  0
SPLINE
  5
126
100
AcDbEntity
  8
Layer_1
 62
7
100
AcDbSpline
 70
8
 71
3
 72
8
 73
4
 74
0
 40
0
 40
0
 40
0
 40
0
 40
1
 40
1
 40
1
 40
1
 10
132.178980
 20
185.623950
 30
0.0
 10
131.560178
 20
185.981216
 30
0.0
 10
131.178980
 20
186.641470
 30
0.0
 10
131.178980
 20
187.356001
 30
0.0
  0
LWPOLYLINE
  5
127
100
AcDbEntity
  8
Layer_1
 62
7
100
AcDbPolyline
 90
2
 70
0
 10
144.818290
 20
178.326641
 30
0.0
 10
132.178980
 20
185.623950
 30
0.0
  0
LWPOLYLINE
  5
128
100
AcDbEntity
  8
Layer_1
 62
7
100
AcDbPolyline
 90
2
 70
0
 10
131.178980
 20
187.356001
 30
0.0
 10
147.818290
 20
187.356001
 30
0.0
  0
SPLINE
  5
129
100
AcDbEntity
  8
Layer_1
 62
7
100
AcDbSpline
 70
8
 71
3
 72
8
 73
4
 74
0
 40
0
 40
0
 40
0
 40
0
 40
1
 40
1
 40
1
 40
1
 10
78.900359
 20
187.356001
 30
0.0
 10
78.900359
 20
186.641470
 30
0.0
 10
78.519161
 20
185.981216
 30
0.0
 10
77.900359
 20
185.623950
 30
0.0
  0
LWPOLYLINE
  5
12a
100
AcDbEntity
  8
Layer_1
 62
7
100
AcDbPolyline
 90
2
 70
0
 10
62.261049
 20
187.356001
 30
0.0
 10
78.900359
 20
187.356001
 30
0.0
  0
SPLINE
  5
12b
100
AcDbEntity
  8
Layer_1
 62
7
100
AcDbSpline
 70
8
 71
3
 72
8
 73
4
 74
0
 40
0
 40
0
 40
0
 40
0
 40
1
 40
1
 40
1
 40
1
 10
65.261049
 20
178.326641
 30
0.0
 10
64.642247
 20
177.969375
 30
0.0
 10
63.879851
 20
177.969375
 30
0.0
 10
63.261049
 20
178.326641
 30
0.0
  0
SPLINE
  5
12c
100
AcDbEntity
  8
Layer_1
 62
7
100
AcDbSpline
 70
8
 71
3
 72
8
 73
4
 74
0
 40
0
 40
0
 40
0
 40
0
 40
1
 40
1
 40
1
 40
1
 10
63.261049
 20
178.326641
 30
0.0
 10
62.642247
 20
178.683907
 30
0.0
 10
62.261049
 20
179.344161
 30
0.0
 10
62.261049
 20
180.058692
 30
0.0
  0
LWPOLYLINE
  5
12d
100
AcDbEntity
  8
Layer_1
 62
7
100
AcDbPolyline
 90
2
 70
0
 10
77.900359
 20
185.623950
 30
0.0
 10
65.261049
 20
178.326641
 30
0.0
  0
SPLINE
  5
12e
100
AcDbEntity
  8
Layer_1
 62
7
100
AcDbSpline
 70
8
 71
3
 72
8
 73
4
 74
0
 40
0
 40
0
 40
0
 40
0
 40
1
 40
1
 40
1
 40
1
 10
122.778980
 20
187.356001
 30
0.0
 10
122.778980
 20
186.641470
 30
0.0
 10
122.397782
 20
185.981216
 30
0.0
 10
121.778980
 20
185.623950
 30
0.0
  0
LWPOLYLINE
  5
12f
100
AcDbEntity
  8
Layer_1
 62
7
100
AcDbPolyline
 90
2
 70
0
 10
62.261049
 20
180.058692
 30
0.0
 10
62.261049
 20
187.356001
 30
0.0
  0
SPLINE
  5
130
100
AcDbEntity
  8
Layer_1
 62
7
100
AcDbSpline
 70
8
 71
3
 72
8
 73
4
 74
0
 40
0
 40
0
 40
0
 40
0
 40
1
 40
1
 40
1
 40
1
 10
109.139669
 20
178.326641
 30
0.0
 10
108.520867
 20
177.969375
 30
0.0
 10
107.758471
 20
177.969375
 30
0.0
 10
107.139669
 20
178.326641
 30
0.0
  0
SPLINE
  5
131
100
AcDbEntity
  8
Layer_1
 62
7
100
AcDbSpline
 70
8
 71
3
 72
8
 73
4
 74
0
 40
0
 40
0
 40
0
 40
0
 40
1
 40
1
 40
1
 40
1
 10
107.139669
 20
178.326641
 30
0.0
 10
106.520867
 20
178.683907
 30
0.0
 10
106.139669
 20
179.344161
 30
0.0
 10
106.139669
 20
180.058692
 30
0.0
  0
LWPOLYLINE
  5
132
100
AcDbEntity
  8
Layer_1
 62
7
100
AcDbPolyline
 90
2
 70
0
 10
121.778980
 20
185.623950
 30
0.0
 10
109.139669
 20
178.326641
 30
0.0
  0
LWPOLYLINE
  5
133
100
AcDbEntity
  8
Layer_1
 62
7
100
AcDbPolyline
 90
3
 70
0
 10
106.139669
 20
180.058692
 30
0.0
 10
106.139669
 20
187.356001
 30
0.0
 10
122.778980
 20
187.356001
 30
0.0
  0
SPLINE
  5
134
100
AcDbEntity
  8
Layer_1
 62
7
100
AcDbSpline
 70
8
 71
3
 72
8
 73
4
 74
0
 40
0
 40
0
 40
0
 40
0
 40
1
 40
1
 40
1
 40
1
 10
103.939669
 20
180.058692
 30
0.0
 10
103.939669
 20
179.344161
 30
0.0
 10
103.558471
 20
178.683907
 30
0.0
 10
102.939669
 20
178.326641
 30
0.0
  0
SPLINE
  5
135
100
AcDbEntity
  8
Layer_1
 62
7
100
AcDbSpline
 70
8
 71
3
 72
8
 73
4
 74
0
 40
0
 40
0
 40
0
 40
0
 40
1
 40
1
 40
1
 40
1
 10
102.939669
 20
178.326641
 30
0.0
 10
102.320867
 20
177.969375
 30
0.0
 10
101.558471
 20
177.969375
 30
0.0
 10
100.939669
 20
178.326641
 30
0.0
  0
LWPOLYLINE
  5
136
100
AcDbEntity
  8
Layer_1
 62
7
100
AcDbPolyline
 90
2
 70
0
 10
103.939669
 20
187.356001
 30
0.0
 10
103.939669
 20
180.058692
 30
0.0
  0
SPLINE
  5
137
100
AcDbEntity
  8
Layer_1
 62
7
100
AcDbSpline
 70
8
 71
3
 72
8
 73
4
 74
0
 40
0
 40
0
 40
0
 40
0
 40
1
 40
1
 40
1
 40
1
 10
88.300359
 20
185.623950
 30
0.0
 10
87.681557
 20
185.981216
 30
0.0
 10
87.300359
 20
186.641470
 30
0.0
 10
87.300359
 20
187.356001
 30
0.0
  0
LWPOLYLINE
  5
138
100
AcDbEntity
  8
Layer_1
 62
7
100
AcDbPolyline
 90
2
 70
0
 10
100.939669
 20
178.326641
 30
0.0
 10
88.300359
 20
185.623950
 30
0.0
  0
LWPOLYLINE
  5
139
100
AcDbEntity
  8
Layer_1
 62
7
100
AcDbPolyline
 90
2
 70
0
 10
87.300359
 20
187.356001
 30
0.0
 10
103.939669
 20
187.356001
 30
0.0
  0
SPLINE
  5
13a
100
AcDbEntity
  8
Layer_1
 62
7
100
AcDbSpline
 70
8
 71
3
 72
8
 73
4
 74
0
 40
0
 40
0
 40
0
 40
0
 40
1
 40
1
 40
1
 40
1
 10
106.139669
 20
118.653310
 30
0.0
 10
106.139669
 20
119.367841
 30
0.0
 10
106.520867
 20
120.028095
 30
0.0
 10
107.139669
 20
120.385361
 30
0.0
  0
SPLINE
  5
13b
100
AcDbEntity
  8
Layer_1
 62
7
100
AcDbSpline
 70
8
 71
3
 72
8
 73
4
 74
0
 40
0
 40
0
 40
0
 40
0
 40
1
 40
1
 40
1
 40
1
 10
107.139669
 20
120.385361
 30
0.0
 10
107.758471
 20
120.742627
 30
0.0
 10
108.520867
 20
120.742627
 30
0.0
 10
109.139669
 20
120.385361
 30
0.0
  0
LWPOLYLINE
  5
13c
100
AcDbEntity
  8
Layer_1
 62
7
100
AcDbPolyline
 90
2
 70
0
 10
106.139669
 20
111.356001
 30
0.0
 10
106.139669
 20
118.653310
 30
0.0
  0
SPLINE
  5
13d
100
AcDbEntity
  8
Layer_1
 62
7
100
AcDbSpline
 70
8
 71
3
 72
8
 73
4
 74
0
 40
0
 40
0
 40
0
 40
0
 40
1
 40
1
 40
1
 40
1
 10
121.778980
 20
113.088052
 30
0.0
 10
122.397782
 20
112.730786
 30
0.0
 10
122.778980
 20
112.070532
 30
0.0
 10
122.778980
 20
111.356001
 30
0.0
  0
LWPOLYLINE
  5
13e
100
AcDbEntity
  8
Layer_1
 62
7
100
AcDbPolyline
 90
2
 70
0
 10
109.139669
 20
120.385361
 30
0.0
 10
121.778980
 20
113.088052
 30
0.0
  0
LWPOLYLINE
  5
13f
100
AcDbEntity
  8
Layer_1
 62
7
100
AcDbPolyline
 90
2
 70
0
 10
122.778980
 20
111.356001
 30
0.0
 10
106.139669
 20
111.356001
 30
0.0
  0
SPLINE
  5
140
100
AcDbEntity
  8
Layer_1
 62
7
100
AcDbSpline
 70
8
 71
3
 72
8
 73
4
 74
0
 40
0
 40
0
 40
0
 40
0
 40
1
 40
1
 40
1
 40
1
 10
87.300359
 20
111.356001
 30
0.0
 10
87.300359
 20
112.070532
 30
0.0
 10
87.681557
 20
112.730786
 30
0.0
 10
88.300359
 20
113.088052
 30
0.0
  0
LWPOLYLINE
  5
141
100
AcDbEntity
  8
Layer_1
 62
7
100
AcDbPolyline
 90
2
 70
0
 10
103.939669
 20
111.356001
 30
0.0
 10
87.300359
 20
111.356001
 30
0.0
  0
SPLINE
  5
142
100
AcDbEntity
  8
Layer_1
 62
7
100
AcDbSpline
 70
8
 71
3
 72
8
 73
4
 74
0
 40
0
 40
0
 40
0
 40
0
 40
1
 40
1
 40
1
 40
1
 10
100.939669
 20
120.385361
 30
0.0
 10
101.558471
 20
120.742627
 30
0.0
 10
102.320867
 20
120.742627
 30
0.0
 10
102.939669
 20
120.385361
 30
0.0
  0
SPLINE
  5
143
100
AcDbEntity
  8
Layer_1
 62
7
100
AcDbSpline
 70
8
 71
3
 72
8
 73
4
 74
0
 40
0
 40
0
 40
0
 40
0
 40
1
 40
1
 40
1
 40
1
 10
102.939669
 20
120.385361
 30
0.0
 10
103.558471
 20
120.028095
 30
0.0
 10
103.939669
 20
119.367841
 30
0.0
 10
103.939669
 20
118.653310
 30
0.0
  0
LWPOLYLINE
  5
144
100
AcDbEntity
  8
Layer_1
 62
7
100
AcDbPolyline
 90
2
 70
0
 10
88.300359
 20
113.088052
 30
0.0
 10
100.939669
 20
120.385361
 30
0.0
  0
SPLINE
  5
145
100
AcDbEntity
  8
Layer_1
 62
7
100
AcDbSpline
 70
8
 71
3
 72
8
 73
4
 74
0
 40
0
 40
0
 40
0
 40
0
 40
1
 40
1
 40
1
 40
1
 10
131.178980
 20
111.356001
 30
0.0
 10
131.178980
 20
112.070532
 30
0.0
 10
131.560178
 20
112.730786
 30
0.0
 10
132.178980
 20
113.088052
 30
0.0
  0
LWPOLYLINE
  5
146
100
AcDbEntity
  8
Layer_1
 62
7
100
AcDbPolyline
 90
2
 70
0
 10
103.939669
 20
118.653310
 30
0.0
 10
103.939669
 20
111.356001
 30
0.0
  0
SPLINE
  5
147
100
AcDbEntity
  8
Layer_1
 62
7
100
AcDbSpline
 70
8
 71
3
 72
8
 73
4
 74
0
 40
0
 40
0
 40
0
 40
0
 40
1
 40
1
 40
1
 40
1
 10
144.818290
 20
120.385361
 30
0.0
 10
145.437092
 20
120.742627
 30
0.0
 10
146.199488
 20
120.742627
 30
0.0
 10
146.818290
 20
120.385361
 30
0.0
  0
SPLINE
  5
148
100
AcDbEntity
  8
Layer_1
 62
7
100
AcDbSpline
 70
8
 71
3
 72
8
 73
4
 74
0
 40
0
 40
0
 40
0
 40
0
 40
1
 40
1
 40
1
 40
1
 10
146.818290
 20
120.385361
 30
0.0
 10
147.437092
 20
120.028095
 30
0.0
 10
147.818290
 20
119.367841
 30
0.0
 10
147.818290
 20
118.653310
 30
0.0
  0
LWPOLYLINE
  5
149
100
AcDbEntity
  8
Layer_1
 62
7
100
AcDbPolyline
 90
2
 70
0
 10
132.178980
 20
113.088052
 30
0.0
 10
144.818290
 20
120.385361
 30
0.0
  0
LWPOLYLINE
  5
14a
100
AcDbEntity
  8
Layer_1
 62
7
100
AcDbPolyline
 90
3
 70
0
 10
147.818290
 20
118.653310
 30
0.0
 10
147.818290
 20
111.356001
 30
0.0
 10
131.178980
 20
111.356001
 30
0.0
  0
SPLINE
  5
14b
100
AcDbEntity
  8
Layer_1
 62
7
100
AcDbSpline
 70
8
 71
3
 72
8
 73
4
 74
0
 40
0
 40
0
 40
0
 40
0
 40
1
 40
1
 40
1
 40
1
 10
150.018290
 20
118.653310
 30
0.0
 10
150.018290
 20
119.367841
 30
0.0
 10
150.399488
 20
120.028095
 30
0.0
 10
151.018290
 20
120.385361
 30
0.0
  0
SPLINE
  5
14c
100
AcDbEntity
  8
Layer_1
 62
7
100
AcDbSpline
 70
8
 71
3
 72
8
 73
4
 74
0
 40
0
 40
0
 40
0
 40
0
 40
1
 40
1
 40
1
 40
1
 10
151.018290
 20
120.385361
 30
0.0
 10
151.637092
 20
120.742627
 30
0.0
 10
152.399488
 20
120.742627
 30
0.0
 10
153.018290
 20
120.385361
 30
0.0
  0
LWPOLYLINE
  5
14d
100
AcDbEntity
  8
Layer_1
 62
7
100
AcDbPolyline
 90
2
 70
0
 10
150.018290
 20
111.356001
 30
0.0
 10
150.018290
 20
118.653310
 30
0.0
  0
SPLINE
  5
14e
100
AcDbEntity
  8
Layer_1
 62
7
100
AcDbSpline
 70
8
 71
3
 72
8
 73
4
 74
0
 40
0
 40
0
 40
0
 40
0
 40
1
 40
1
 40
1
 40
1
 10
165.657600
 20
113.088052
 30
0.0
 10
166.276402
 20
112.730786
 30
0.0
 10
166.657600
 20
112.070532
 30
0.0
 10
166.657600
 20
111.356001
 30
0.0
  0
LWPOLYLINE
  5
14f
100
AcDbEntity
  8
Layer_1
 62
7
100
AcDbPolyline
 90
2
 70
0
 10
153.018290
 20
120.385361
 30
0.0
 10
165.657600
 20
113.088052
 30
0.0
  0
LWPOLYLINE
  5
150
100
AcDbEntity
  8
Layer_1
 62
7
100
AcDbPolyline
 90
2
 70
0
 10
166.657600
 20
111.356001
 30
0.0
 10
150.018290
 20
111.356001
 30
0.0
  0
SPLINE
  5
151
100
AcDbEntity
  8
Layer_1
 62
7
100
AcDbSpline
 70
8
 71
3
 72
8
 73
4
 74
0
 40
0
 40
0
 40
0
 40
0
 40
1
 40
1
 40
1
 40
1
 10
62.261049
 20
118.653310
 30
0.0
 10
62.261049
 20
119.367841
 30
0.0
 10
62.642247
 20
120.028095
 30
0.0
 10
63.261049
 20
120.385361
 30
0.0
  0
SPLINE
  5
152
100
AcDbEntity
  8
Layer_1
 62
7
100
AcDbSpline
 70
8
 71
3
 72
8
 73
4
 74
0
 40
0
 40
0
 40
0
 40
0
 40
1
 40
1
 40
1
 40
1
 10
63.261049
 20
120.385361
 30
0.0
 10
63.879851
 20
120.742627
 30
0.0
 10
64.642247
 20
120.742627
 30
0.0
 10
65.261049
 20
120.385361
 30
0.0
  0
LWPOLYLINE
  5
153
100
AcDbEntity
  8
Layer_1
 62
7
100
AcDbPolyline
 90
3
 70
0
 10
78.900359
 20
111.356001
 30
0.0
 10
62.261049
 20
111.356001
 30
0.0
 10
62.261049
 20
118.653310
 30
0.0
  0
SPLINE
  5
154
100
AcDbEntity
  8
Layer_1
 62
7
100
AcDbSpline
 70
8
 71
3
 72
8
 73
4
 74
0
 40
0
 40
0
 40
0
 40
0
 40
1
 40
1
 40
1
 40
1
 10
77.900359
 20
113.088052
 30
0.0
 10
78.519161
 20
112.730786
 30
0.0
 10
78.900359
 20
112.070532
 30
0.0
 10
78.900359
 20
111.356001
 30
0.0
  0
LWPOLYLINE
  5
155
100
AcDbEntity
  8
Layer_1
 62
7
100
AcDbPolyline
 90
2
 70
0
 10
65.261049
 20
120.385361
 30
0.0
 10
77.900359
 20
113.088052
 30
0.0
  0
LWPOLYLINE
  5
156
100
AcDbEntity
  8
Layer_1
 62
7
100
AcDbPolyline
 90
1
 70
1
 10
78.900359
 20
111.356001
 30
0.0
  0
SPLINE
  5
157
100
AcDbEntity
  8
Layer_1
 62
7
100
AcDbSpline
 70
8
 71
3
 72
8
 73
4
 74
0
 40
0
 40
0
 40
0
 40
0
 40
1
 40
1
 40
1
 40
1
 10
43.421739
 20
111.356001
 30
0.0
 10
43.421739
 20
112.070532
 30
0.0
 10
43.802937
 20
112.730786
 30
0.0
 10
44.421739
 20
113.088052
 30
0.0
  0
LWPOLYLINE
  5
158
100
AcDbEntity
  8
Layer_1
 62
7
100
AcDbPolyline
 90
2
 70
0
 10
60.061049
 20
111.356001
 30
0.0
 10
43.421739
 20
111.356001
 30
0.0
  0
SPLINE
  5
159
100
AcDbEntity
  8
Layer_1
 62
7
100
AcDbSpline
 70
8
 71
3
 72
8
 73
4
 74
0
 40
0
 40
0
 40
0
 40
0
 40
1
 40
1
 40
1
 40
1
 10
57.061049
 20
120.385361
 30
0.0
 10
57.679851
 20
120.742627
 30
0.0
 10
58.442247
 20
120.742627
 30
0.0
 10
59.061049
 20
120.385361
 30
0.0
  0
SPLINE
  5
15a
100
AcDbEntity
  8
Layer_1
 62
7
100
AcDbSpline
 70
8
 71
3
 72
8
 73
4
 74
0
 40
0
 40
0
 40
0
 40
0
 40
1
 40
1
 40
1
 40
1
 10
59.061049
 20
120.385361
 30
0.0
 10
59.679851
 20
120.028095
 30
0.0
 10
60.061049
 20
119.367841
 30
0.0
 10
60.061049
 20
118.653310
 30
0.0
  0
LWPOLYLINE
  5
15b
100
AcDbEntity
  8
Layer_1
 62
7
100
AcDbPolyline
 90
2
 70
0
 10
44.421739
 20
113.088052
 30
0.0
 10
57.061049
 20
120.385361
 30
0.0
  0
SPLINE
  5
15c
100
AcDbEntity
  8
Layer_1
 62
7
100
AcDbSpline
 70
8
 71
3
 72
8
 73
4
 74
0
 40
0
 40
0
 40
0
 40
0
 40
1
 40
1
 40
1
 40
1
 10
169.757600
 20
116.725358
 30
0.0
 10
169.757600
 20
116.010827
 30
0.0
 10
169.376402
 20
115.350573
 30
0.0
 10
168.757600
 20
114.993308
 30
0.0
  0
SPLINE
  5
15d
100
AcDbEntity
  8
Layer_1
 62
7
100
AcDbSpline
 70
8
 71
3
 72
8
 73
4
 74
0
 40
0
 40
0
 40
0
 40
0
 40
1
 40
1
 40
1
 40
1
 10
168.757600
 20
114.993308
 30
0.0
 10
168.138798
 20
114.636042
 30
0.0
 10
167.376402
 20
114.636042
 30
0.0
 10
166.757600
 20
114.993308
 30
0.0
  0
LWPOLYLINE
  5
15e
100
AcDbEntity
  8
Layer_1
 62
7
100
AcDbPolyline
 90
2
 70
0
 10
60.061049
 20
118.653310
 30
0.0
 10
60.061049
 20
111.356001
 30
0.0
  0
SPLINE
  5
15f
100
AcDbEntity
  8
Layer_1
 62
7
100
AcDbSpline
 70
8
 71
3
 72
8
 73
4
 74
0
 40
0
 40
0
 40
0
 40
0
 40
1
 40
1
 40
1
 40
1
 10
154.118290
 20
122.290617
 30
0.0
 10
153.499488
 20
122.647883
 30
0.0
 10
153.118291
 20
123.308137
 30
0.0
 10
153.118291
 20
124.022667
 30
0.0
  0
SPLINE
  5
160
100
AcDbEntity
  8
Layer_1
 62
7
100
AcDbSpline
 70
8
 71
3
 72
8
 73
4
 74
0
 40
0
 40
0
 40
0
 40
0
 40
1
 40
1
 40
1
 40
1
 10
153.118291
 20
124.022667
 30
0.0
 10
153.118291
 20
124.737198
 30
0.0
 10
153.499488
 20
125.397452
 30
0.0
 10
154.118290
 20
125.754718
 30
0.0
  0
LWPOLYLINE
  5
161
100
AcDbEntity
  8
Layer_1
 62
7
100
AcDbPolyline
 90
2
 70
0
 10
166.757600
 20
114.993308
 30
0.0
 10
154.118290
 20
122.290617
 30
0.0
  0
SPLINE
  5
162
100
AcDbEntity
  8
Layer_1
 62
7
100
AcDbSpline
 70
8
 71
3
 72
8
 73
4
 74
0
 40
0
 40
0
 40
0
 40
0
 40
1
 40
1
 40
1
 40
1
 10
166.757600
 20
133.052028
 30
0.0
 10
167.376402
 20
133.409294
 30
0.0
 10
168.138798
 20
133.409294
 30
0.0
 10
168.757600
 20
133.052028
 30
0.0
  0
SPLINE
  5
163
100
AcDbEntity
  8
Layer_1
 62
7
100
AcDbSpline
 70
8
 71
3
 72
8
 73
4
 74
0
 40
0
 40
0
 40
0
 40
0
 40
1
 40
1
 40
1
 40
1
 10
168.757600
 20
133.052028
 30
0.0
 10
169.376402
 20
132.694762
 30
0.0
 10
169.757600
 20
132.034508
 30
0.0
 10
169.757600
 20
131.319977
 30
0.0
  0
LWPOLYLINE
  5
164
100
AcDbEntity
  8
Layer_1
 62
7
100
AcDbPolyline
 90
2
 70
0
 10
154.118290
 20
125.754718
 30
0.0
 10
166.757600
 20
133.052028
 30
0.0
  0
SPLINE
  5
165
100
AcDbEntity
  8
Layer_1
 62
7
100
AcDbSpline
 70
8
 71
3
 72
8
 73
4
 74
0
 40
0
 40
0
 40
0
 40
0
 40
1
 40
1
 40
1
 40
1
 10
169.757600
 20
142.058692
 30
0.0
 10
169.757600
 20
141.344161
 30
0.0
 10
169.376402
 20
140.683907
 30
0.0
 10
168.757600
 20
140.326641
 30
0.0
  0
SPLINE
  5
166
100
AcDbEntity
  8
Layer_1
 62
7
100
AcDbSpline
 70
8
 71
3
 72
8
 73
4
 74
0
 40
0
 40
0
 40
0
 40
0
 40
1
 40
1
 40
1
 40
1
 10
168.757600
 20
140.326641
 30
0.0
 10
168.138798
 20
139.969375
 30
0.0
 10
167.376402
 20
139.969375
 30
0.0
 10
166.757600
 20
140.326641
 30
0.0
  0
LWPOLYLINE
  5
167
100
AcDbEntity
  8
Layer_1
 62
7
100
AcDbPolyline
 90
2
 70
0
 10
169.757600
 20
131.319977
 30
0.0
 10
169.757600
 20
116.725358
 30
0.0
  0
SPLINE
  5
168
100
AcDbEntity
  8
Layer_1
 62
7
100
AcDbSpline
 70
8
 71
3
 72
8
 73
4
 74
0
 40
0
 40
0
 40
0
 40
0
 40
1
 40
1
 40
1
 40
1
 10
154.118290
 20
147.623950
 30
0.0
 10
153.499488
 20
147.981216
 30
0.0
 10
153.118290
 20
148.641470
 30
0.0
 10
153.118290
 20
149.356001
 30
0.0
  0
SPLINE
  5
169
100
AcDbEntity
  8
Layer_1
 62
7
100
AcDbSpline
 70
8
 71
3
 72
8
 73
4
 74
0
 40
0
 40
0
 40
0
 40
0
 40
1
 40
1
 40
1
 40
1
 10
153.118290
 20
149.356001
 30
0.0
 10
153.118290
 20
150.070532
 30
0.0
 10
153.499488
 20
150.730786
 30
0.0
 10
154.118290
 20
151.088052
 30
0.0
  0
LWPOLYLINE
  5
16a
100
AcDbEntity
  8
Layer_1
 62
7
100
AcDbPolyline
 90
2
 70
0
 10
166.757600
 20
140.326641
 30
0.0
 10
154.118290
 20
147.623950
 30
0.0
  0
SPLINE
  5
16b
100
AcDbEntity
  8
Layer_1
 62
7
100
AcDbSpline
 70
8
 71
3
 72
8
 73
4
 74
0
 40
0
 40
0
 40
0
 40
0
 40
1
 40
1
 40
1
 40
1
 10
166.757600
 20
158.385361
 30
0.0
 10
167.376402
 20
158.742627
 30
0.0
 10
168.138798
 20
158.742627
 30
0.0
 10
168.757600
 20
158.385361
 30
0.0
  0
SPLINE
  5
16c
100
AcDbEntity
  8
Layer_1
 62
7
100
AcDbSpline
 70
8
 71
3
 72
8
 73
4
 74
0
 40
0
 40
0
 40
0
 40
0
 40
1
 40
1
 40
1
 40
1
 10
168.757600
 20
158.385361
 30
0.0
 10
169.376402
 20
158.028095
 30
0.0
 10
169.757600
 20
157.367841
 30
0.0
 10
169.757600
 20
156.653310
 30
0.0
  0
LWPOLYLINE
  5
16d
100
AcDbEntity
  8
Layer_1
 62
7
100
AcDbPolyline
 90
2
 70
0
 10
154.118290
 20
151.088052
 30
0.0
 10
166.757600
 20
158.385361
 30
0.0
  0
SPLINE
  5
16e
100
AcDbEntity
  8
Layer_1
 62
7
100
AcDbSpline
 70
8
 71
3
 72
8
 73
4
 74
0
 40
0
 40
0
 40
0
 40
0
 40
1
 40
1
 40
1
 40
1
 10
169.757600
 20
167.392025
 30
0.0
 10
169.757600
 20
166.677494
 30
0.0
 10
169.376402
 20
166.017240
 30
0.0
 10
168.757600
 20
165.659974
 30
0.0
  0
SPLINE
  5
16f
100
AcDbEntity
  8
Layer_1
 62
7
100
AcDbSpline
 70
8
 71
3
 72
8
 73
4
 74
0
 40
0
 40
0
 40
0
 40
0
 40
1
 40
1
 40
1
 40
1
 10
168.757600
 20
165.659974
 30
0.0
 10
168.138798
 20
165.302708
 30
0.0
 10
167.376402
 20
165.302708
 30
0.0
 10
166.757600
 20
165.659974
 30
0.0
  0
LWPOLYLINE
  5
170
100
AcDbEntity
  8
Layer_1
 62
7
100
AcDbPolyline
 90
2
 70
0
 10
169.757600
 20
156.653310
 30
0.0
 10
169.757600
 20
142.058692
 30
0.0
  0
SPLINE
  5
171
100
AcDbEntity
  8
Layer_1
 62
7
100
AcDbSpline
 70
8
 71
3
 72
8
 73
4
 74
0
 40
0
 40
0
 40
0
 40
0
 40
1
 40
1
 40
1
 40
1
 10
154.118290
 20
172.957283
 30
0.0
 10
153.499488
 20
173.314549
 30
0.0
 10
153.118290
 20
173.974803
 30
0.0
 10
153.118290
 20
174.689334
 30
0.0
  0
SPLINE
  5
172
100
AcDbEntity
  8
Layer_1
 62
7
100
AcDbSpline
 70
8
 71
3
 72
8
 73
4
 74
0
 40
0
 40
0
 40
0
 40
0
 40
1
 40
1
 40
1
 40
1
 10
153.118290
 20
174.689334
 30
0.0
 10
153.118290
 20
175.403865
 30
0.0
 10
153.499488
 20
176.064119
 30
0.0
 10
154.118290
 20
176.421385
 30
0.0
  0
LWPOLYLINE
  5
173
100
AcDbEntity
  8
Layer_1
 62
7
100
AcDbPolyline
 90
2
 70
0
 10
166.757600
 20
165.659974
 30
0.0
 10
154.118290
 20
172.957283
 30
0.0
  0
SPLINE
  5
174
100
AcDbEntity
  8
Layer_1
 62
7
100
AcDbSpline
 70
8
 71
3
 72
8
 73
4
 74
0
 40
0
 40
0
 40
0
 40
0
 40
1
 40
1
 40
1
 40
1
 10
166.757600
 20
183.718694
 30
0.0
 10
167.376402
 20
184.075960
 30
0.0
 10
168.138798
 20
184.075960
 30
0.0
 10
168.757600
 20
183.718694
 30
0.0
  0
SPLINE
  5
175
100
AcDbEntity
  8
Layer_1
 62
7
100
AcDbSpline
 70
8
 71
3
 72
8
 73
4
 74
0
 40
0
 40
0
 40
0
 40
0
 40
1
 40
1
 40
1
 40
1
 10
168.757600
 20
183.718694
 30
0.0
 10
169.376402
 20
183.361428
 30
0.0
 10
169.757600
 20
182.701174
 30
0.0
 10
169.757600
 20
181.986643
 30
0.0
  0
LWPOLYLINE
  5
176
100
AcDbEntity
  8
Layer_1
 62
7
100
AcDbPolyline
 90
2
 70
0
 10
154.118290
 20
176.421385
 30
0.0
 10
166.757600
 20
183.718694
 30
0.0
  0
LWPOLYLINE
  5
177
100
AcDbEntity
  8
Layer_1
 62
7
100
AcDbPolyline
 90
2
 70
0
 10
169.757600
 20
181.986643
 30
0.0
 10
169.757600
 20
167.392025
 30
0.0
  0
SPLINE
  5
178
100
AcDbEntity
  8
Layer_1
 62
7
100
AcDbSpline
 70
8
 71
3
 72
8
 73
4
 74
0
 40
0
 40
0
 40
0
 40
0
 40
1
 40
1
 40
1
 40
1
 10
55.961049
 20
151.088052
 30
0.0
 10
56.579851
 20
150.730786
 30
0.0
 10
56.961049
 20
150.070532
 30
0.0
 10
56.961049
 20
149.356001
 30
0.0
  0
SPLINE
  5
179
100
AcDbEntity
  8
Layer_1
 62
7
100
AcDbSpline
 70
8
 71
3
 72
8
 73
4
 74
0
 40
0
 40
0
 40
0
 40
0
 40
1
 40
1
 40
1
 40
1
 10
56.961049
 20
149.356001
 30
0.0
 10
56.961049
 20
148.641470
 30
0.0
 10
56.579851
 20
147.981216
 30
0.0
 10
55.961049
 20
147.623950
 30
0.0
  0
LWPOLYLINE
  5
17a
100
AcDbEntity
  8
Layer_1
 62
7
100
AcDbPolyline
 90
2
 70
0
 10
43.321739
 20
158.385361
 30
0.0
 10
55.961049
 20
151.088052
 30
0.0
  0
SPLINE
  5
17b
100
AcDbEntity
  8
Layer_1
 62
7
100
AcDbSpline
 70
8
 71
3
 72
8
 73
4
 74
0
 40
0
 40
0
 40
0
 40
0
 40
1
 40
1
 40
1
 40
1
 10
43.321739
 20
140.326641
 30
0.0
 10
42.702937
 20
139.969375
 30
0.0
 10
41.940541
 20
139.969375
 30
0.0
 10
41.321739
 20
140.326641
 30
0.0
  0
SPLINE
  5
17c
100
AcDbEntity
  8
Layer_1
 62
7
100
AcDbSpline
 70
8
 71
3
 72
8
 73
4
 74
0
 40
0
 40
0
 40
0
 40
0
 40
1
 40
1
 40
1
 40
1
 10
41.321739
 20
140.326641
 30
0.0
 10
40.702937
 20
140.683907
 30
0.0
 10
40.321739
 20
141.344161
 30
0.0
 10
40.321739
 20
142.058692
 30
0.0
  0
LWPOLYLINE
  5
17d
100
AcDbEntity
  8
Layer_1
 62
7
100
AcDbPolyline
 90
2
 70
0
 10
55.961049
 20
147.623950
 30
0.0
 10
43.321739
 20
140.326641
 30
0.0
  0
SPLINE
  5
17e
100
AcDbEntity
  8
Layer_1
 62
7
100
AcDbSpline
 70
8
 71
3
 72
8
 73
4
 74
0
 40
0
 40
0
 40
0
 40
0
 40
1
 40
1
 40
1
 40
1
 10
40.321739
 20
156.653310
 30
0.0
 10
40.321739
 20
157.367841
 30
0.0
 10
40.702937
 20
158.028095
 30
0.0
 10
41.321739
 20
158.385361
 30
0.0
  0
SPLINE
  5
17f
100
AcDbEntity
  8
Layer_1
 62
7
100
AcDbSpline
 70
8
 71
3
 72
8
 73
4
 74
0
 40
0
 40
0
 40
0
 40
0
 40
1
 40
1
 40
1
 40
1
 10
41.321739
 20
158.385361
 30
0.0
 10
41.940541
 20
158.742627
 30
0.0
 10
42.702937
 20
158.742627
 30
0.0
 10
43.321739
 20
158.385361
 30
0.0
  0
LWPOLYLINE
  5
180
100
AcDbEntity
  8
Layer_1
 62
7
100
AcDbPolyline
 90
2
 70
0
 10
40.321739
 20
142.058692
 30
0.0
 10
40.321739
 20
156.653310
 30
0.0
  0
LWPOLYLINE
  5
181
100
AcDbEntity
  8
Layer_1
 62
7
100
AcDbPolyline
 90
1
 70
1
 10
43.321739
 20
158.385361
 30
0.0
  0
SPLINE
  5
182
100
AcDbEntity
  8
Layer_1
 62
7
100
AcDbSpline
 70
8
 71
3
 72
8
 73
4
 74
0
 40
0
 40
0
 40
0
 40
0
 40
1
 40
1
 40
1
 40
1
 10
40.321739
 20
131.319977
 30
0.0
 10
40.321739
 20
132.034508
 30
0.0
 10
40.702937
 20
132.694762
 30
0.0
 10
41.321739
 20
133.052028
 30
0.0
  0
SPLINE
  5
183
100
AcDbEntity
  8
Layer_1
 62
7
100
AcDbSpline
 70
8
 71
3
 72
8
 73
4
 74
0
 40
0
 40
0
 40
0
 40
0
 40
1
 40
1
 40
1
 40
1
 10
41.321739
 20
133.052028
 30
0.0
 10
41.940541
 20
133.409294
 30
0.0
 10
42.702937
 20
133.409294
 30
0.0
 10
43.321739
 20
133.052028
 30
0.0
  0
LWPOLYLINE
  5
184
100
AcDbEntity
  8
Layer_1
 62
7
100
AcDbPolyline
 90
2
 70
0
 10
40.321739
 20
116.725358
 30
0.0
 10
40.321739
 20
131.319977
 30
0.0
  0
SPLINE
  5
185
100
AcDbEntity
  8
Layer_1
 62
7
100
AcDbSpline
 70
8
 71
3
 72
8
 73
4
 74
0
 40
0
 40
0
 40
0
 40
0
 40
1
 40
1
 40
1
 40
1
 10
55.961049
 20
125.754718
 30
0.0
 10
56.579851
 20
125.397452
 30
0.0
 10
56.961048
 20
124.737198
 30
0.0
 10
56.961048
 20
124.022667
 30
0.0
  0
SPLINE
  5
186
100
AcDbEntity
  8
Layer_1
 62
7
100
AcDbSpline
 70
8
 71
3
 72
8
 73
4
 74
0
 40
0
 40
0
 40
0
 40
0
 40
1
 40
1
 40
1
 40
1
 10
56.961048
 20
124.022667
 30
0.0
 10
56.961048
 20
123.308137
 30
0.0
 10
56.579851
 20
122.647883
 30
0.0
 10
55.961049
 20
122.290617
 30
0.0
  0
LWPOLYLINE
  5
187
100
AcDbEntity
  8
Layer_1
 62
7
100
AcDbPolyline
 90
2
 70
0
 10
43.321739
 20
133.052028
 30
0.0
 10
55.961049
 20
125.754718
 30
0.0
  0
SPLINE
  5
188
100
AcDbEntity
  8
Layer_1
 62
7
100
AcDbSpline
 70
8
 71
3
 72
8
 73
4
 74
0
 40
0
 40
0
 40
0
 40
0
 40
1
 40
1
 40
1
 40
1
 10
43.321739
 20
114.993308
 30
0.0
 10
42.702937
 20
114.636042
 30
0.0
 10
41.940541
 20
114.636042
 30
0.0
 10
41.321739
 20
114.993308
 30
0.0
  0
SPLINE
  5
189
100
AcDbEntity
  8
Layer_1
 62
7
100
AcDbSpline
 70
8
 71
3
 72
8
 73
4
 74
0
 40
0
 40
0
 40
0
 40
0
 40
1
 40
1
 40
1
 40
1
 10
41.321739
 20
114.993308
 30
0.0
 10
40.702937
 20
115.350573
 30
0.0
 10
40.321739
 20
116.010827
 30
0.0
 10
40.321739
 20
116.725358
 30
0.0
  0
LWPOLYLINE
  5
18a
100
AcDbEntity
  8
Layer_1
 62
7
100
AcDbPolyline
 90
2
 70
0
 10
55.961049
 20
122.290617
 30
0.0
 10
43.321739
 20
114.993308
 30
0.0
  0
LWPOLYLINE
  5
18b
100
AcDbEntity
  8
Layer_1
 62
7
100
AcDbPolyline
 90
1
 70
1
 10
40.321739
 20
116.725358
 30
0.0
  0
SPLINE
  5
18c
100
AcDbEntity
  8
Layer_1
 62
7
100
AcDbSpline
 70
8
 71
3
 72
8
 73
4
 74
0
 40
0
 40
0
 40
0
 40
0
 40
1
 40
1
 40
1
 40
1
 10
57.061049
 20
145.718694
 30
0.0
 10
57.679851
 20
146.075960
 30
0.0
 10
58.442247
 20
146.075960
 30
0.0
 10
59.061049
 20
145.718694
 30
0.0
  0
SPLINE
  5
18d
100
AcDbEntity
  8
Layer_1
 62
7
100
AcDbSpline
 70
8
 71
3
 72
8
 73
4
 74
0
 40
0
 40
0
 40
0
 40
0
 40
1
 40
1
 40
1
 40
1
 10
59.061049
 20
145.718694
 30
0.0
 10
59.679851
 20
145.361428
 30
0.0
 10
60.061049
 20
144.701174
 30
0.0
 10
60.061049
 20
143.986643
 30
0.0
  0
LWPOLYLINE
  5
18e
100
AcDbEntity
  8
Layer_1
 62
7
100
AcDbPolyline
 90
2
 70
0
 10
44.421739
 20
138.421385
 30
0.0
 10
57.061049
 20
145.718694
 30
0.0
  0
SPLINE
  5
18f
100
AcDbEntity
  8
Layer_1
 62
7
100
AcDbSpline
 70
8
 71
3
 72
8
 73
4
 74
0
 40
0
 40
0
 40
0
 40
0
 40
1
 40
1
 40
1
 40
1
 10
60.061049
 20
129.392025
 30
0.0
 10
60.061049
 20
128.677494
 30
0.0
 10
59.679851
 20
128.017240
 30
0.0
 10
59.061049
 20
127.659974
 30
0.0
  0
SPLINE
  5
190
100
AcDbEntity
  8
Layer_1
 62
7
100
AcDbSpline
 70
8
 71
3
 72
8
 73
4
 74
0
 40
0
 40
0
 40
0
 40
0
 40
1
 40
1
 40
1
 40
1
 10
59.061049
 20
127.659974
 30
0.0
 10
58.442247
 20
127.302708
 30
0.0
 10
57.679851
 20
127.302708
 30
0.0
 10
57.061049
 20
127.659974
 30
0.0
  0
LWPOLYLINE
  5
191
100
AcDbEntity
  8
Layer_1
 62
7
100
AcDbPolyline
 90
2
 70
0
 10
60.061049
 20
143.986643
 30
0.0
 10
60.061049
 20
129.392025
 30
0.0
  0
SPLINE
  5
192
100
AcDbEntity
  8
Layer_1
 62
7
100
AcDbSpline
 70
8
 71
3
 72
8
 73
4
 74
0
 40
0
 40
0
 40
0
 40
0
 40
1
 40
1
 40
1
 40
1
 10
44.421739
 20
134.957283
 30
0.0
 10
43.802937
 20
135.314549
 30
0.0
 10
43.421739
 20
135.974803
 30
0.0
 10
43.421739
 20
136.689334
 30
0.0
  0
SPLINE
  5
193
100
AcDbEntity
  8
Layer_1
 62
7
100
AcDbSpline
 70
8
 71
3
 72
8
 73
4
 74
0
 40
0
 40
0
 40
0
 40
0
 40
1
 40
1
 40
1
 40
1
 10
43.421739
 20
136.689334
 30
0.0
 10
43.421739
 20
137.403865
 30
0.0
 10
43.802937
 20
138.064119
 30
0.0
 10
44.421739
 20
138.421385
 30
0.0
  0
LWPOLYLINE
  5
194
100
AcDbEntity
  8
Layer_1
 62
7
100
AcDbPolyline
 90
2
 70
0
 10
57.061049
 20
127.659974
 30
0.0
 10
44.421739
 20
134.957283
 30
0.0
  0
LWPOLYLINE
  5
195
100
AcDbEntity
  8
Layer_1
 62
7
100
AcDbPolyline
 90
1
 70
1
 10
44.421739
 20
138.421385
 30
0.0
  0
SPLINE
  5
196
100
AcDbEntity
  8
Layer_1
 62
7
100
AcDbSpline
 70
8
 71
3
 72
8
 73
4
 74
0
 40
0
 40
0
 40
0
 40
0
 40
1
 40
1
 40
1
 40
1
 10
106.139669
 20
143.986643
 30
0.0
 10
106.139669
 20
144.701174
 30
0.0
 10
106.520867
 20
145.361428
 30
0.0
 10
107.139669
 20
145.718694
 30
0.0
  0
SPLINE
  5
197
100
AcDbEntity
  8
Layer_1
 62
7
100
AcDbSpline
 70
8
 71
3
 72
8
 73
4
 74
0
 40
0
 40
0
 40
0
 40
0
 40
1
 40
1
 40
1
 40
1
 10
107.139669
 20
145.718694
 30
0.0
 10
107.758471
 20
146.075960
 30
0.0
 10
108.520867
 20
146.075960
 30
0.0
 10
109.139669
 20
145.718694
 30
0.0
  0
LWPOLYLINE
  5
198
100
AcDbEntity
  8
Layer_1
 62
7
100
AcDbPolyline
 90
2
 70
0
 10
106.139669
 20
129.392025
 30
0.0
 10
106.139669
 20
143.986643
 30
0.0
  0
SPLINE
  5
199
100
AcDbEntity
  8
Layer_1
 62
7
100
AcDbSpline
 70
8
 71
3
 72
8
 73
4
 74
0
 40
0
 40
0
 40
0
 40
0
 40
1
 40
1
 40
1
 40
1
 10
121.778980
 20
138.421385
 30
0.0
 10
122.397782
 20
138.064119
 30
0.0
 10
122.778980
 20
137.403865
 30
0.0
 10
122.778980
 20
136.689334
 30
0.0
  0
SPLINE
  5
19a
100
AcDbEntity
  8
Layer_1
 62
7
100
AcDbSpline
 70
8
 71
3
 72
8
 73
4
 74
0
 40
0
 40
0
 40
0
 40
0
 40
1
 40
1
 40
1
 40
1
 10
122.778980
 20
136.689334
 30
0.0
 10
122.778980
 20
135.974803
 30
0.0
 10
122.397782
 20
135.314549
 30
0.0
 10
121.778980
 20
134.957283
 30
0.0
  0
LWPOLYLINE
  5
19b
100
AcDbEntity
  8
Layer_1
 62
7
100
AcDbPolyline
 90
2
 70
0
 10
109.139669
 20
145.718694
 30
0.0
 10
121.778980
 20
138.421385
 30
0.0
  0
SPLINE
  5
19c
100
AcDbEntity
  8
Layer_1
 62
7
100
AcDbSpline
 70
8
 71
3
 72
8
 73
4
 74
0
 40
0
 40
0
 40
0
 40
0
 40
1
 40
1
 40
1
 40
1
 10
109.139669
 20
127.659974
 30
0.0
 10
108.520867
 20
127.302708
 30
0.0
 10
107.758471
 20
127.302708
 30
0.0
 10
107.139669
 20
127.659974
 30
0.0
  0
SPLINE
  5
19d
100
AcDbEntity
  8
Layer_1
 62
7
100
AcDbSpline
 70
8
 71
3
 72
8
 73
4
 74
0
 40
0
 40
0
 40
0
 40
0
 40
1
 40
1
 40
1
 40
1
 10
107.139669
 20
127.659974
 30
0.0
 10
106.520867
 20
128.017240
 30
0.0
 10
106.139669
 20
128.677494
 30
0.0
 10
106.139669
 20
129.392025
 30
0.0
  0
LWPOLYLINE
  5
19e
100
AcDbEntity
  8
Layer_1
 62
7
100
AcDbPolyline
 90
2
 70
0
 10
121.778980
 20
134.957283
 30
0.0
 10
109.139669
 20
127.659974
 30
0.0
  0
LWPOLYLINE
  5
19f
100
AcDbEntity
  8
Layer_1
 62
7
100
AcDbPolyline
 90
1
 70
1
 10
106.139669
 20
129.392025
 30
0.0
  0
SPLINE
  5
1a0
100
AcDbEntity
  8
Layer_1
 62
7
100
AcDbSpline
 70
8
 71
3
 72
8
 73
4
 74
0
 40
0
 40
0
 40
0
 40
0
 40
1
 40
1
 40
1
 40
1
 10
110.239669
 20
122.290617
 30
0.0
 10
109.620867
 20
122.647883
 30
0.0
 10
109.239670
 20
123.308137
 30
0.0
 10
109.239670
 20
124.022667
 30
0.0
  0
SPLINE
  5
1a1
100
AcDbEntity
  8
Layer_1
 62
7
100
AcDbSpline
 70
8
 71
3
 72
8
 73
4
 74
0
 40
0
 40
0
 40
0
 40
0
 40
1
 40
1
 40
1
 40
1
 10
109.239670
 20
124.022667
 30
0.0
 10
109.239670
 20
124.737198
 30
0.0
 10
109.620867
 20
125.397452
 30
0.0
 10
110.239669
 20
125.754718
 30
0.0
  0
LWPOLYLINE
  5
1a2
100
AcDbEntity
  8
Layer_1
 62
7
100
AcDbPolyline
 90
2
 70
0
 10
122.878980
 20
114.993308
 30
0.0
 10
110.239669
 20
122.290617
 30
0.0
  0
SPLINE
  5
1a3
100
AcDbEntity
  8
Layer_1
 62
7
100
AcDbSpline
 70
8
 71
3
 72
8
 73
4
 74
0
 40
0
 40
0
 40
0
 40
0
 40
1
 40
1
 40
1
 40
1
 10
122.878980
 20
133.052028
 30
0.0
 10
123.497782
 20
133.409294
 30
0.0
 10
124.260178
 20
133.409294
 30
0.0
 10
124.878980
 20
133.052028
 30
0.0
  0
SPLINE
  5
1a4
100
AcDbEntity
  8
Layer_1
 62
7
100
AcDbSpline
 70
8
 71
3
 72
8
 73
4
 74
0
 40
0
 40
0
 40
0
 40
0
 40
1
 40
1
 40
1
 40
1
 10
124.878980
 20
133.052028
 30
0.0
 10
125.497782
 20
132.694762
 30
0.0
 10
125.878980
 20
132.034508
 30
0.0
 10
125.878980
 20
131.319977
 30
0.0
  0
LWPOLYLINE
  5
1a5
100
AcDbEntity
  8
Layer_1
 62
7
100
AcDbPolyline
 90
2
 70
0
 10
110.239669
 20
125.754718
 30
0.0
 10
122.878980
 20
133.052028
 30
0.0
  0
SPLINE
  5
1a6
100
AcDbEntity
  8
Layer_1
 62
7
100
AcDbSpline
 70
8
 71
3
 72
8
 73
4
 74
0
 40
0
 40
0
 40
0
 40
0
 40
1
 40
1
 40
1
 40
1
 10
125.878980
 20
116.725358
 30
0.0
 10
125.878980
 20
116.010827
 30
0.0
 10
125.497782
 20
115.350573
 30
0.0
 10
124.878980
 20
114.993308
 30
0.0
  0
SPLINE
  5
1a7
100
AcDbEntity
  8
Layer_1
 62
7
100
AcDbSpline
 70
8
 71
3
 72
8
 73
4
 74
0
 40
0
 40
0
 40
0
 40
0
 40
1
 40
1
 40
1
 40
1
 10
124.878980
 20
114.993308
 30
0.0
 10
124.260178
 20
114.636042
 30
0.0
 10
123.497782
 20
114.636042
 30
0.0
 10
122.878980
 20
114.993308
 30
0.0
  0
LWPOLYLINE
  5
1a8
100
AcDbEntity
  8
Layer_1
 62
7
100
AcDbPolyline
 90
2
 70
0
 10
125.878980
 20
131.319977
 30
0.0
 10
125.878980
 20
116.725358
 30
0.0
  0
LWPOLYLINE
  5
1a9
100
AcDbEntity
  8
Layer_1
 62
7
100
AcDbPolyline
 90
1
 70
1
 10
122.878980
 20
114.993308
 30
0.0
  0
SPLINE
  5
1aa
100
AcDbEntity
  8
Layer_1
 62
7
100
AcDbSpline
 70
8
 71
3
 72
8
 73
4
 74
0
 40
0
 40
0
 40
0
 40
0
 40
1
 40
1
 40
1
 40
1
 10
103.939669
 20
129.392025
 30
0.0
 10
103.939669
 20
128.677494
 30
0.0
 10
103.558471
 20
128.017240
 30
0.0
 10
102.939669
 20
127.659974
 30
0.0
  0
SPLINE
  5
1ab
100
AcDbEntity
  8
Layer_1
 62
7
100
AcDbSpline
 70
8
 71
3
 72
8
 73
4
 74
0
 40
0
 40
0
 40
0
 40
0
 40
1
 40
1
 40
1
 40
1
 10
102.939669
 20
127.659974
 30
0.0
 10
102.320867
 20
127.302708
 30
0.0
 10
101.558471
 20
127.302708
 30
0.0
 10
100.939669
 20
127.659974
 30
0.0
  0
LWPOLYLINE
  5
1ac
100
AcDbEntity
  8
Layer_1
 62
7
100
AcDbPolyline
 90
2
 70
0
 10
103.939669
 20
143.986643
 30
0.0
 10
103.939669
 20
129.392025
 30
0.0
  0
SPLINE
  5
1ad
100
AcDbEntity
  8
Layer_1
 62
7
100
AcDbSpline
 70
8
 71
3
 72
8
 73
4
 74
0
 40
0
 40
0
 40
0
 40
0
 40
1
 40
1
 40
1
 40
1
 10
88.300359
 20
134.957283
 30
0.0
 10
87.681557
 20
135.314549
 30
0.0
 10
87.300359
 20
135.974803
 30
0.0
 10
87.300359
 20
136.689334
 30
0.0
  0
SPLINE
  5
1ae
100
AcDbEntity
  8
Layer_1
 62
7
100
AcDbSpline
 70
8
 71
3
 72
8
 73
4
 74
0
 40
0
 40
0
 40
0
 40
0
 40
1
 40
1
 40
1
 40
1
 10
87.300359
 20
136.689334
 30
0.0
 10
87.300359
 20
137.403865
 30
0.0
 10
87.681557
 20
138.064119
 30
0.0
 10
88.300359
 20
138.421385
 30
0.0
  0
LWPOLYLINE
  5
1af
100
AcDbEntity
  8
Layer_1
 62
7
100
AcDbPolyline
 90
2
 70
0
 10
100.939669
 20
127.659974
 30
0.0
 10
88.300359
 20
134.957283
 30
0.0
  0
SPLINE
  5
1b0
100
AcDbEntity
  8
Layer_1
 62
7
100
AcDbSpline
 70
8
 71
3
 72
8
 73
4
 74
0
 40
0
 40
0
 40
0
 40
0
 40
1
 40
1
 40
1
 40
1
 10
100.939669
 20
145.718694
 30
0.0
 10
101.558471
 20
146.075960
 30
0.0
 10
102.320867
 20
146.075960
 30
0.0
 10
102.939669
 20
145.718694
 30
0.0
  0
SPLINE
  5
1b1
100
AcDbEntity
  8
Layer_1
 62
7
100
AcDbSpline
 70
8
 71
3
 72
8
 73
4
 74
0
 40
0
 40
0
 40
0
 40
0
 40
1
 40
1
 40
1
 40
1
 10
102.939669
 20
145.718694
 30
0.0
 10
103.558471
 20
145.361428
 30
0.0
 10
103.939669
 20
144.701174
 30
0.0
 10
103.939669
 20
143.986643
 30
0.0
  0
LWPOLYLINE
  5
1b2
100
AcDbEntity
  8
Layer_1
 62
7
100
AcDbPolyline
 90
2
 70
0
 10
88.300359
 20
138.421385
 30
0.0
 10
100.939669
 20
145.718694
 30
0.0
  0
LWPOLYLINE
  5
1b3
100
AcDbEntity
  8
Layer_1
 62
7
100
AcDbPolyline
 90
1
 70
1
 10
103.939669
 20
143.986643
 30
0.0
  0
SPLINE
  5
1b4
100
AcDbEntity
  8
Layer_1
 62
7
100
AcDbSpline
 70
8
 71
3
 72
8
 73
4
 74
0
 40
0
 40
0
 40
0
 40
0
 40
1
 40
1
 40
1
 40
1
 10
87.200359
 20
114.993308
 30
0.0
 10
86.581557
 20
114.636042
 30
0.0
 10
85.819161
 20
114.636042
 30
0.0
 10
85.200359
 20
114.993308
 30
0.0
  0
SPLINE
  5
1b5
100
AcDbEntity
  8
Layer_1
 62
7
100
AcDbSpline
 70
8
 71
3
 72
8
 73
4
 74
0
 40
0
 40
0
 40
0
 40
0
 40
1
 40
1
 40
1
 40
1
 10
85.200359
 20
114.993308
 30
0.0
 10
84.581557
 20
115.350573
 30
0.0
 10
84.200359
 20
116.010827
 30
0.0
 10
84.200359
 20
116.725358
 30
0.0
  0
LWPOLYLINE
  5
1b6
100
AcDbEntity
  8
Layer_1
 62
7
100
AcDbPolyline
 90
2
 70
0
 10
99.839669
 20
122.290617
 30
0.0
 10
87.200359
 20
114.993308
 30
0.0
  0
SPLINE
  5
1b7
100
AcDbEntity
  8
Layer_1
 62
7
100
AcDbSpline
 70
8
 71
3
 72
8
 73
4
 74
0
 40
0
 40
0
 40
0
 40
0
 40
1
 40
1
 40
1
 40
1
 10
84.200359
 20
131.319977
 30
0.0
 10
84.200359
 20
132.034508
 30
0.0
 10
84.581557
 20
132.694762
 30
0.0
 10
85.200359
 20
133.052028
 30
0.0
  0
SPLINE
  5
1b8
100
AcDbEntity
  8
Layer_1
 62
7
100
AcDbSpline
 70
8
 71
3
 72
8
 73
4
 74
0
 40
0
 40
0
 40
0
 40
0
 40
1
 40
1
 40
1
 40
1
 10
85.200359
 20
133.052028
 30
0.0
 10
85.819161
 20
133.409294
 30
0.0
 10
86.581557
 20
133.409294
 30
0.0
 10
87.200359
 20
133.052028
 30
0.0
  0
LWPOLYLINE
  5
1b9
100
AcDbEntity
  8
Layer_1
 62
7
100
AcDbPolyline
 90
2
 70
0
 10
84.200359
 20
116.725358
 30
0.0
 10
84.200359
 20
131.319977
 30
0.0
  0
SPLINE
  5
1ba
100
AcDbEntity
  8
Layer_1
 62
7
100
AcDbSpline
 70
8
 71
3
 72
8
 73
4
 74
0
 40
0
 40
0
 40
0
 40
0
 40
1
 40
1
 40
1
 40
1
 10
99.839669
 20
125.754718
 30
0.0
 10
100.458471
 20
125.397452
 30
0.0
 10
100.839668
 20
124.737198
 30
0.0
 10
100.839668
 20
124.022668
 30
0.0
  0
SPLINE
  5
1bb
100
AcDbEntity
  8
Layer_1
 62
7
100
AcDbSpline
 70
8
 71
3
 72
8
 73
4
 74
0
 40
0
 40
0
 40
0
 40
0
 40
1
 40
1
 40
1
 40
1
 10
100.839668
 20
124.022668
 30
0.0
 10
100.839668
 20
123.308137
 30
0.0
 10
100.458471
 20
122.647883
 30
0.0
 10
99.839669
 20
122.290617
 30
0.0
  0
LWPOLYLINE
  5
1bc
100
AcDbEntity
  8
Layer_1
 62
7
100
AcDbPolyline
 90
2
 70
0
 10
87.200359
 20
133.052028
 30
0.0
 10
99.839669
 20
125.754718
 30
0.0
  0
LWPOLYLINE
  5
1bd
100
AcDbEntity
  8
Layer_1
 62
7
100
AcDbPolyline
 90
1
 70
1
 10
99.839669
 20
122.290617
 30
0.0
  0
SPLINE
  5
1be
100
AcDbEntity
  8
Layer_1
 62
7
100
AcDbSpline
 70
8
 71
3
 72
8
 73
4
 74
0
 40
0
 40
0
 40
0
 40
0
 40
1
 40
1
 40
1
 40
1
 10
82.000359
 20
167.392025
 30
0.0
 10
82.000359
 20
166.677494
 30
0.0
 10
81.619161
 20
166.017240
 30
0.0
 10
81.000359
 20
165.659974
 30
0.0
  0
SPLINE
  5
1bf
100
AcDbEntity
  8
Layer_1
 62
7
100
AcDbSpline
 70
8
 71
3
 72
8
 73
4
 74
0
 40
0
 40
0
 40
0
 40
0
 40
1
 40
1
 40
1
 40
1
 10
81.000359
 20
165.659974
 30
0.0
 10
80.381557
 20
165.302708
 30
0.0
 10
79.619161
 20
165.302708
 30
0.0
 10
79.000359
 20
165.659974
 30
0.0
  0
LWPOLYLINE
  5
1c0
100
AcDbEntity
  8
Layer_1
 62
7
100
AcDbPolyline
 90
2
 70
0
 10
82.000359
 20
181.986643
 30
0.0
 10
82.000359
 20
167.392025
 30
0.0
  0
SPLINE
  5
1c1
100
AcDbEntity
  8
Layer_1
 62
7
100
AcDbSpline
 70
8
 71
3
 72
8
 73
4
 74
0
 40
0
 40
0
 40
0
 40
0
 40
1
 40
1
 40
1
 40
1
 10
66.361049
 20
172.957283
 30
0.0
 10
65.742247
 20
173.314549
 30
0.0
 10
65.361049
 20
173.974803
 30
0.0
 10
65.361049
 20
174.689334
 30
0.0
  0
SPLINE
  5
1c2
100
AcDbEntity
  8
Layer_1
 62
7
100
AcDbSpline
 70
8
 71
3
 72
8
 73
4
 74
0
 40
0
 40
0
 40
0
 40
0
 40
1
 40
1
 40
1
 40
1
 10
65.361049
 20
174.689334
 30
0.0
 10
65.361049
 20
175.403865
 30
0.0
 10
65.742247
 20
176.064119
 30
0.0
 10
66.361049
 20
176.421385
 30
0.0
  0
LWPOLYLINE
  5
1c3
100
AcDbEntity
  8
Layer_1
 62
7
100
AcDbPolyline
 90
2
 70
0
 10
79.000359
 20
165.659974
 30
0.0
 10
66.361049
 20
172.957283
 30
0.0
  0
SPLINE
  5
1c4
100
AcDbEntity
  8
Layer_1
 62
7
100
AcDbSpline
 70
8
 71
3
 72
8
 73
4
 74
0
 40
0
 40
0
 40
0
 40
0
 40
1
 40
1
 40
1
 40
1
 10
79.000359
 20
183.718694
 30
0.0
 10
79.619161
 20
184.075960
 30
0.0
 10
80.381557
 20
184.075960
 30
0.0
 10
81.000359
 20
183.718694
 30
0.0
  0
SPLINE
  5
1c5
100
AcDbEntity
  8
Layer_1
 62
7
100
AcDbSpline
 70
8
 71
3
 72
8
 73
4
 74
0
 40
0
 40
0
 40
0
 40
0
 40
1
 40
1
 40
1
 40
1
 10
81.000359
 20
183.718694
 30
0.0
 10
81.619161
 20
183.361428
 30
0.0
 10
82.000359
 20
182.701174
 30
0.0
 10
82.000359
 20
181.986643
 30
0.0
  0
LWPOLYLINE
  5
1c6
100
AcDbEntity
  8
Layer_1
 62
7
100
AcDbPolyline
 90
2
 70
0
 10
66.361049
 20
176.421385
 30
0.0
 10
79.000359
 20
183.718694
 30
0.0
  0
LWPOLYLINE
  5
1c7
100
AcDbEntity
  8
Layer_1
 62
7
100
AcDbPolyline
 90
1
 70
1
 10
82.000359
 20
181.986643
 30
0.0
  0
SPLINE
  5
1c8
100
AcDbEntity
  8
Layer_1
 62
7
100
AcDbSpline
 70
8
 71
3
 72
8
 73
4
 74
0
 40
0
 40
0
 40
0
 40
0
 40
1
 40
1
 40
1
 40
1
 10
84.200359
 20
181.986643
 30
0.0
 10
84.200359
 20
182.701174
 30
0.0
 10
84.581557
 20
183.361428
 30
0.0
 10
85.200359
 20
183.718694
 30
0.0
  0
SPLINE
  5
1c9
100
AcDbEntity
  8
Layer_1
 62
7
100
AcDbSpline
 70
8
 71
3
 72
8
 73
4
 74
0
 40
0
 40
0
 40
0
 40
0
 40
1
 40
1
 40
1
 40
1
 10
85.200359
 20
183.718694
 30
0.0
 10
85.819161
 20
184.075960
 30
0.0
 10
86.581557
 20
184.075960
 30
0.0
 10
87.200359
 20
183.718694
 30
0.0
  0
LWPOLYLINE
  5
1ca
100
AcDbEntity
  8
Layer_1
 62
7
100
AcDbPolyline
 90
2
 70
0
 10
84.200359
 20
167.392025
 30
0.0
 10
84.200359
 20
181.986643
 30
0.0
  0
SPLINE
  5
1cb
100
AcDbEntity
  8
Layer_1
 62
7
100
AcDbSpline
 70
8
 71
3
 72
8
 73
4
 74
0
 40
0
 40
0
 40
0
 40
0
 40
1
 40
1
 40
1
 40
1
 10
99.839669
 20
176.421385
 30
0.0
 10
100.458471
 20
176.064119
 30
0.0
 10
100.839669
 20
175.403865
 30
0.0
 10
100.839669
 20
174.689334
 30
0.0
  0
SPLINE
  5
1cc
100
AcDbEntity
  8
Layer_1
 62
7
100
AcDbSpline
 70
8
 71
3
 72
8
 73
4
 74
0
 40
0
 40
0
 40
0
 40
0
 40
1
 40
1
 40
1
 40
1
 10
100.839669
 20
174.689334
 30
0.0
 10
100.839669
 20
173.974803
 30
0.0
 10
100.458471
 20
173.314549
 30
0.0
 10
99.839669
 20
172.957283
 30
0.0
  0
LWPOLYLINE
  5
1cd
100
AcDbEntity
  8
Layer_1
 62
7
100
AcDbPolyline
 90
2
 70
0
 10
87.200359
 20
183.718694
 30
0.0
 10
99.839669
 20
176.421385
 30
0.0
  0
SPLINE
  5
1ce
100
AcDbEntity
  8
Layer_1
 62
7
100
AcDbSpline
 70
8
 71
3
 72
8
 73
4
 74
0
 40
0
 40
0
 40
0
 40
0
 40
1
 40
1
 40
1
 40
1
 10
87.200359
 20
165.659974
 30
0.0
 10
86.581557
 20
165.302708
 30
0.0
 10
85.819161
 20
165.302708
 30
0.0
 10
85.200359
 20
165.659974
 30
0.0
  0
SPLINE
  5
1cf
100
AcDbEntity
  8
Layer_1
 62
7
100
AcDbSpline
 70
8
 71
3
 72
8
 73
4
 74
0
 40
0
 40
0
 40
0
 40
0
 40
1
 40
1
 40
1
 40
1
 10
85.200359
 20
165.659974
 30
0.0
 10
84.581557
 20
166.017240
 30
0.0
 10
84.200359
 20
166.677494
 30
0.0
 10
84.200359
 20
167.392025
 30
0.0
  0
LWPOLYLINE
  5
1d0
100
AcDbEntity
  8
Layer_1
 62
7
100
AcDbPolyline
 90
2
 70
0
 10
99.839669
 20
172.957283
 30
0.0
 10
87.200359
 20
165.659974
 30
0.0
  0
LWPOLYLINE
  5
1d1
100
AcDbEntity
  8
Layer_1
 62
7
100
AcDbPolyline
 90
1
 70
1
 10
84.200359
 20
167.392025
 30
0.0
  0
SPLINE
  5
1d2
100
AcDbEntity
  8
Layer_1
 62
7
100
AcDbSpline
 70
8
 71
3
 72
8
 73
4
 74
0
 40
0
 40
0
 40
0
 40
0
 40
1
 40
1
 40
1
 40
1
 10
125.878980
 20
167.392025
 30
0.0
 10
125.878980
 20
166.677494
 30
0.0
 10
125.497782
 20
166.017240
 30
0.0
 10
124.878980
 20
165.659974
 30
0.0
  0
SPLINE
  5
1d3
100
AcDbEntity
  8
Layer_1
 62
7
100
AcDbSpline
 70
8
 71
3
 72
8
 73
4
 74
0
 40
0
 40
0
 40
0
 40
0
 40
1
 40
1
 40
1
 40
1
 10
124.878980
 20
165.659974
 30
0.0
 10
124.260178
 20
165.302708
 30
0.0
 10
123.497782
 20
165.302708
 30
0.0
 10
122.878980
 20
165.659974
 30
0.0
  0
LWPOLYLINE
  5
1d4
100
AcDbEntity
  8
Layer_1
 62
7
100
AcDbPolyline
 90
2
 70
0
 10
125.878980
 20
181.986643
 30
0.0
 10
125.878980
 20
167.392025
 30
0.0
  0
SPLINE
  5
1d5
100
AcDbEntity
  8
Layer_1
 62
7
100
AcDbSpline
 70
8
 71
3
 72
8
 73
4
 74
0
 40
0
 40
0
 40
0
 40
0
 40
1
 40
1
 40
1
 40
1
 10
110.239669
 20
172.957283
 30
0.0
 10
109.620867
 20
173.314549
 30
0.0
 10
109.239669
 20
173.974803
 30
0.0
 10
109.239669
 20
174.689334
 30
0.0
  0
SPLINE
  5
1d6
100
AcDbEntity
  8
Layer_1
 62
7
100
AcDbSpline
 70
8
 71
3
 72
8
 73
4
 74
0
 40
0
 40
0
 40
0
 40
0
 40
1
 40
1
 40
1
 40
1
 10
109.239669
 20
174.689334
 30
0.0
 10
109.239669
 20
175.403865
 30
0.0
 10
109.620867
 20
176.064119
 30
0.0
 10
110.239669
 20
176.421385
 30
0.0
  0
LWPOLYLINE
  5
1d7
100
AcDbEntity
  8
Layer_1
 62
7
100
AcDbPolyline
 90
2
 70
0
 10
122.878980
 20
165.659974
 30
0.0
 10
110.239669
 20
172.957283
 30
0.0
  0
SPLINE
  5
1d8
100
AcDbEntity
  8
Layer_1
 62
7
100
AcDbSpline
 70
8
 71
3
 72
8
 73
4
 74
0
 40
0
 40
0
 40
0
 40
0
 40
1
 40
1
 40
1
 40
1
 10
122.878980
 20
183.718694
 30
0.0
 10
123.497782
 20
184.075960
 30
0.0
 10
124.260178
 20
184.075960
 30
0.0
 10
124.878980
 20
183.718694
 30
0.0
  0
SPLINE
  5
1d9
100
AcDbEntity
  8
Layer_1
 62
7
100
AcDbSpline
 70
8
 71
3
 72
8
 73
4
 74
0
 40
0
 40
0
 40
0
 40
0
 40
1
 40
1
 40
1
 40
1
 10
124.878980
 20
183.718694
 30
0.0
 10
125.497782
 20
183.361428
 30
0.0
 10
125.878980
 20
182.701174
 30
0.0
 10
125.878980
 20
181.986643
 30
0.0
  0
LWPOLYLINE
  5
1da
100
AcDbEntity
  8
Layer_1
 62
7
100
AcDbPolyline
 90
2
 70
0
 10
110.239669
 20
176.421385
 30
0.0
 10
122.878980
 20
183.718694
 30
0.0
  0
LWPOLYLINE
  5
1db
100
AcDbEntity
  8
Layer_1
 62
7
100
AcDbPolyline
 90
1
 70
1
 10
125.878980
 20
181.986643
 30
0.0
  0
SPLINE
  5
1dc
100
AcDbEntity
  8
Layer_1
 62
7
100
AcDbSpline
 70
8
 71
3
 72
8
 73
4
 74
0
 40
0
 40
0
 40
0
 40
0
 40
1
 40
1
 40
1
 40
1
 10
128.078980
 20
181.986643
 30
0.0
 10
128.078980
 20
182.701174
 30
0.0
 10
128.460178
 20
183.361428
 30
0.0
 10
129.078980
 20
183.718694
 30
0.0
  0
SPLINE
  5
1dd
100
AcDbEntity
  8
Layer_1
 62
7
100
AcDbSpline
 70
8
 71
3
 72
8
 73
4
 74
0
 40
0
 40
0
 40
0
 40
0
 40
1
 40
1
 40
1
 40
1
 10
129.078980
 20
183.718694
 30
0.0
 10
129.697782
 20
184.075960
 30
0.0
 10
130.460178
 20
184.075960
 30
0.0
 10
131.078980
 20
183.718694
 30
0.0
  0
LWPOLYLINE
  5
1de
100
AcDbEntity
  8
Layer_1
 62
7
100
AcDbPolyline
 90
2
 70
0
 10
128.078980
 20
167.392025
 30
0.0
 10
128.078980
 20
181.986643
 30
0.0
  0
SPLINE
  5
1df
100
AcDbEntity
  8
Layer_1
 62
7
100
AcDbSpline
 70
8
 71
3
 72
8
 73
4
 74
0
 40
0
 40
0
 40
0
 40
0
 40
1
 40
1
 40
1
 40
1
 10
143.718290
 20
176.421385
 30
0.0
 10
144.337092
 20
176.064119
 30
0.0
 10
144.718290
 20
175.403865
 30
0.0
 10
144.718290
 20
174.689334
 30
0.0
  0
SPLINE
  5
1e0
100
AcDbEntity
  8
Layer_1
 62
7
100
AcDbSpline
 70
8
 71
3
 72
8
 73
4
 74
0
 40
0
 40
0
 40
0
 40
0
 40
1
 40
1
 40
1
 40
1
 10
144.718290
 20
174.689334
 30
0.0
 10
144.718290
 20
173.974803
 30
0.0
 10
144.337092
 20
173.314549
 30
0.0
 10
143.718290
 20
172.957283
 30
0.0
  0
LWPOLYLINE
  5
1e1
100
AcDbEntity
  8
Layer_1
 62
7
100
AcDbPolyline
 90
2
 70
0
 10
131.078980
 20
183.718694
 30
0.0
 10
143.718290
 20
176.421385
 30
0.0
  0
SPLINE
  5
1e2
100
AcDbEntity
  8
Layer_1
 62
7
100
AcDbSpline
 70
8
 71
3
 72
8
 73
4
 74
0
 40
0
 40
0
 40
0
 40
0
 40
1
 40
1
 40
1
 40
1
 10
131.078980
 20
165.659974
 30
0.0
 10
130.460178
 20
165.302708
 30
0.0
 10
129.697782
 20
165.302708
 30
0.0
 10
129.078980
 20
165.659974
 30
0.0
  0
SPLINE
  5
1e3
100
AcDbEntity
  8
Layer_1
 62
7
100
AcDbSpline
 70
8
 71
3
 72
8
 73
4
 74
0
 40
0
 40
0
 40
0
 40
0
 40
1
 40
1
 40
1
 40
1
 10
129.078980
 20
165.659974
 30
0.0
 10
128.460178
 20
166.017240
 30
0.0
 10
128.078980
 20
166.677494
 30
0.0
 10
128.078980
 20
167.392025
 30
0.0
  0
LWPOLYLINE
  5
1e4
100
AcDbEntity
  8
Layer_1
 62
7
100
AcDbPolyline
 90
2
 70
0
 10
143.718290
 20
172.957283
 30
0.0
 10
131.078980
 20
165.659974
 30
0.0
  0
LWPOLYLINE
  5
1e5
100
AcDbEntity
  8
Layer_1
 62
7
100
AcDbPolyline
 90
1
 70
1
 10
128.078980
 20
167.392025
 30
0.0
  0
SPLINE
  5
1e6
100
AcDbEntity
  8
Layer_1
 62
7
100
AcDbSpline
 70
8
 71
3
 72
8
 73
4
 74
0
 40
0
 40
0
 40
0
 40
0
 40
1
 40
1
 40
1
 40
1
 10
77.900359
 20
138.421385
 30
0.0
 10
78.519161
 20
138.064119
 30
0.0
 10
78.900359
 20
137.403865
 30
0.0
 10
78.900359
 20
136.689334
 30
0.0
  0
SPLINE
  5
1e7
100
AcDbEntity
  8
Layer_1
 62
7
100
AcDbSpline
 70
8
 71
3
 72
8
 73
4
 74
0
 40
0
 40
0
 40
0
 40
0
 40
1
 40
1
 40
1
 40
1
 10
78.900359
 20
136.689334
 30
0.0
 10
78.900359
 20
135.974803
 30
0.0
 10
78.519161
 20
135.314549
 30
0.0
 10
77.900359
 20
134.957283
 30
0.0
  0
LWPOLYLINE
  5
1e8
100
AcDbEntity
  8
Layer_1
 62
7
100
AcDbPolyline
 90
2
 70
0
 10
65.261049
 20
145.718694
 30
0.0
 10
77.900359
 20
138.421385
 30
0.0
  0
SPLINE
  5
1e9
100
AcDbEntity
  8
Layer_1
 62
7
100
AcDbSpline
 70
8
 71
3
 72
8
 73
4
 74
0
 40
0
 40
0
 40
0
 40
0
 40
1
 40
1
 40
1
 40
1
 10
65.261049
 20
127.659974
 30
0.0
 10
64.642247
 20
127.302708
 30
0.0
 10
63.879851
 20
127.302708
 30
0.0
 10
63.261049
 20
127.659974
 30
0.0
  0
SPLINE
  5
1ea
100
AcDbEntity
  8
Layer_1
 62
7
100
AcDbSpline
 70
8
 71
3
 72
8
 73
4
 74
0
 40
0
 40
0
 40
0
 40
0
 40
1
 40
1
 40
1
 40
1
 10
63.261049
 20
127.659974
 30
0.0
 10
62.642247
 20
128.017240
 30
0.0
 10
62.261049
 20
128.677494
 30
0.0
 10
62.261049
 20
129.392025
 30
0.0
  0
LWPOLYLINE
  5
1eb
100
AcDbEntity
  8
Layer_1
 62
7
100
AcDbPolyline
 90
2
 70
0
 10
77.900359
 20
134.957283
 30
0.0
 10
65.261049
 20
127.659974
 30
0.0
  0
SPLINE
  5
1ec
100
AcDbEntity
  8
Layer_1
 62
7
100
AcDbSpline
 70
8
 71
3
 72
8
 73
4
 74
0
 40
0
 40
0
 40
0
 40
0
 40
1
 40
1
 40
1
 40
1
 10
62.261049
 20
143.986643
 30
0.0
 10
62.261049
 20
144.701174
 30
0.0
 10
62.642247
 20
145.361428
 30
0.0
 10
63.261049
 20
145.718694
 30
0.0
  0
SPLINE
  5
1ed
100
AcDbEntity
  8
Layer_1
 62
7
100
AcDbSpline
 70
8
 71
3
 72
8
 73
4
 74
0
 40
0
 40
0
 40
0
 40
0
 40
1
 40
1
 40
1
 40
1
 10
63.261049
 20
145.718694
 30
0.0
 10
63.879851
 20
146.075960
 30
0.0
 10
64.642247
 20
146.075960
 30
0.0
 10
65.261049
 20
145.718694
 30
0.0
  0
LWPOLYLINE
  5
1ee
100
AcDbEntity
  8
Layer_1
 62
7
100
AcDbPolyline
 90
2
 70
0
 10
62.261049
 20
129.392025
 30
0.0
 10
62.261049
 20
143.986643
 30
0.0
  0
LWPOLYLINE
  5
1ef
100
AcDbEntity
  8
Layer_1
 62
7
100
AcDbPolyline
 90
1
 70
1
 10
65.261049
 20
145.718694
 30
0.0
  0
SPLINE
  5
1f0
100
AcDbEntity
  8
Layer_1
 62
7
100
AcDbSpline
 70
8
 71
3
 72
8
 73
4
 74
0
 40
0
 40
0
 40
0
 40
0
 40
1
 40
1
 40
1
 40
1
 10
82.000359
 20
116.725358
 30
0.0
 10
82.000359
 20
116.010827
 30
0.0
 10
81.619161
 20
115.350573
 30
0.0
 10
81.000359
 20
114.993308
 30
0.0
  0
SPLINE
  5
1f1
100
AcDbEntity
  8
Layer_1
 62
7
100
AcDbSpline
 70
8
 71
3
 72
8
 73
4
 74
0
 40
0
 40
0
 40
0
 40
0
 40
1
 40
1
 40
1
 40
1
 10
81.000359
 20
114.993308
 30
0.0
 10
80.381557
 20
114.636042
 30
0.0
 10
79.619161
 20
114.636042
 30
0.0
 10
79.000359
 20
114.993308
 30
0.0
  0
LWPOLYLINE
  5
1f2
100
AcDbEntity
  8
Layer_1
 62
7
100
AcDbPolyline
 90
2
 70
0
 10
82.000359
 20
131.319977
 30
0.0
 10
82.000359
 20
116.725358
 30
0.0
  0
SPLINE
  5
1f3
100
AcDbEntity
  8
Layer_1
 62
7
100
AcDbSpline
 70
8
 71
3
 72
8
 73
4
 74
0
 40
0
 40
0
 40
0
 40
0
 40
1
 40
1
 40
1
 40
1
 10
66.361049
 20
122.290617
 30
0.0
 10
65.742247
 20
122.647883
 30
0.0
 10
65.361050
 20
123.308137
 30
0.0
 10
65.361050
 20
124.022667
 30
0.0
  0
SPLINE
  5
1f4
100
AcDbEntity
  8
Layer_1
 62
7
100
AcDbSpline
 70
8
 71
3
 72
8
 73
4
 74
0
 40
0
 40
0
 40
0
 40
0
 40
1
 40
1
 40
1
 40
1
 10
65.361050
 20
124.022667
 30
0.0
 10
65.361050
 20
124.737198
 30
0.0
 10
65.742247
 20
125.397452
 30
0.0
 10
66.361049
 20
125.754718
 30
0.0
  0
LWPOLYLINE
  5
1f5
100
AcDbEntity
  8
Layer_1
 62
7
100
AcDbPolyline
 90
2
 70
0
 10
79.000359
 20
114.993308
 30
0.0
 10
66.361049
 20
122.290617
 30
0.0
  0
SPLINE
  5
1f6
100
AcDbEntity
  8
Layer_1
 62
7
100
AcDbSpline
 70
8
 71
3
 72
8
 73
4
 74
0
 40
0
 40
0
 40
0
 40
0
 40
1
 40
1
 40
1
 40
1
 10
79.000359
 20
133.052028
 30
0.0
 10
79.619161
 20
133.409294
 30
0.0
 10
80.381557
 20
133.409294
 30
0.0
 10
81.000359
 20
133.052028
 30
0.0
  0
SPLINE
  5
1f7
100
AcDbEntity
  8
Layer_1
 62
7
100
AcDbSpline
 70
8
 71
3
 72
8
 73
4
 74
0
 40
0
 40
0
 40
0
 40
0
 40
1
 40
1
 40
1
 40
1
 10
81.000359
 20
133.052028
 30
0.0
 10
81.619161
 20
132.694762
 30
0.0
 10
82.000359
 20
132.034508
 30
0.0
 10
82.000359
 20
131.319977
 30
0.0
  0
LWPOLYLINE
  5
1f8
100
AcDbEntity
  8
Layer_1
 62
7
100
AcDbPolyline
 90
2
 70
0
 10
66.361049
 20
125.754718
 30
0.0
 10
79.000359
 20
133.052028
 30
0.0
  0
LWPOLYLINE
  5
1f9
100
AcDbEntity
  8
Layer_1
 62
7
100
AcDbPolyline
 90
1
 70
1
 10
82.000359
 20
131.319977
 30
0.0
  0
SPLINE
  5
1fa
100
AcDbEntity
  8
Layer_1
 62
7
100
AcDbSpline
 70
8
 71
3
 72
8
 73
4
 74
0
 40
0
 40
0
 40
0
 40
0
 40
1
 40
1
 40
1
 40
1
 10
44.421739
 20
160.290617
 30
0.0
 10
43.802937
 20
160.647883
 30
0.0
 10
43.421740
 20
161.308137
 30
0.0
 10
43.421740
 20
162.022667
 30
0.0
  0
SPLINE
  5
1fb
100
AcDbEntity
  8
Layer_1
 62
7
100
AcDbSpline
 70
8
 71
3
 72
8
 73
4
 74
0
 40
0
 40
0
 40
0
 40
0
 40
1
 40
1
 40
1
 40
1
 10
43.421740
 20
162.022667
 30
0.0
 10
43.421740
 20
162.737198
 30
0.0
 10
43.802937
 20
163.397452
 30
0.0
 10
44.421739
 20
163.754718
 30
0.0
  0
LWPOLYLINE
  5
1fc
100
AcDbEntity
  8
Layer_1
 62
7
100
AcDbPolyline
 90
2
 70
0
 10
57.061049
 20
152.993308
 30
0.0
 10
44.421739
 20
160.290617
 30
0.0
  0
SPLINE
  5
1fd
100
AcDbEntity
  8
Layer_1
 62
7
100
AcDbSpline
 70
8
 71
3
 72
8
 73
4
 74
0
 40
0
 40
0
 40
0
 40
0
 40
1
 40
1
 40
1
 40
1
 10
57.061049
 20
171.052028
 30
0.0
 10
57.679851
 20
171.409294
 30
0.0
 10
58.442247
 20
171.409294
 30
0.0
 10
59.061049
 20
171.052028
 30
0.0
  0
SPLINE
  5
1fe
100
AcDbEntity
  8
Layer_1
 62
7
100
AcDbSpline
 70
8
 71
3
 72
8
 73
4
 74
0
 40
0
 40
0
 40
0
 40
0
 40
1
 40
1
 40
1
 40
1
 10
59.061049
 20
171.052028
 30
0.0
 10
59.679851
 20
170.694762
 30
0.0
 10
60.061049
 20
170.034508
 30
0.0
 10
60.061049
 20
169.319977
 30
0.0
  0
LWPOLYLINE
  5
1ff
100
AcDbEntity
  8
Layer_1
 62
7
100
AcDbPolyline
 90
2
 70
0
 10
44.421739
 20
163.754718
 30
0.0
 10
57.061049
 20
171.052028
 30
0.0
  0
SPLINE
  5
200
100
AcDbEntity
  8
Layer_1
 62
7
100
AcDbSpline
 70
8
 71
3
 72
8
 73
4
 74
0
 40
0
 40
0
 40
0
 40
0
 40
1
 40
1
 40
1
 40
1
 10
60.061049
 20
154.725358
 30
0.0
 10
60.061049
 20
154.010827
 30
0.0
 10
59.679851
 20
153.350573
 30
0.0
 10
59.061049
 20
152.993308
 30
0.0
  0
SPLINE
  5
201
100
AcDbEntity
  8
Layer_1
 62
7
100
AcDbSpline
 70
8
 71
3
 72
8
 73
4
 74
0
 40
0
 40
0
 40
0
 40
0
 40
1
 40
1
 40
1
 40
1
 10
59.061049
 20
152.993308
 30
0.0
 10
58.442247
 20
152.636042
 30
0.0
 10
57.679851
 20
152.636042
 30
0.0
 10
57.061049
 20
152.993308
 30
0.0
  0
LWPOLYLINE
  5
202
100
AcDbEntity
  8
Layer_1
 62
7
100
AcDbPolyline
 90
2
 70
0
 10
60.061049
 20
169.319977
 30
0.0
 10
60.061049
 20
154.725358
 30
0.0
  0
LWPOLYLINE
  5
203
100
AcDbEntity
  8
Layer_1
 62
7
100
AcDbPolyline
 90
1
 70
1
 10
57.061049
 20
152.993308
 30
0.0
  0
SPLINE
  5
204
100
AcDbEntity
  8
Layer_1
 62
7
100
AcDbSpline
 70
8
 71
3
 72
8
 73
4
 74
0
 40
0
 40
0
 40
0
 40
0
 40
1
 40
1
 40
1
 40
1
 10
65.261049
 20
152.993308
 30
0.0
 10
64.642247
 20
152.636042
 30
0.0
 10
63.879851
 20
152.636042
 30
0.0
 10
63.261049
 20
152.993308
 30
0.0
  0
SPLINE
  5
205
100
AcDbEntity
  8
Layer_1
 62
7
100
AcDbSpline
 70
8
 71
3
 72
8
 73
4
 74
0
 40
0
 40
0
 40
0
 40
0
 40
1
 40
1
 40
1
 40
1
 10
63.261049
 20
152.993308
 30
0.0
 10
62.642247
 20
153.350573
 30
0.0
 10
62.261049
 20
154.010827
 30
0.0
 10
62.261049
 20
154.725358
 30
0.0
  0
LWPOLYLINE
  5
206
100
AcDbEntity
  8
Layer_1
 62
7
100
AcDbPolyline
 90
2
 70
0
 10
77.900359
 20
160.290617
 30
0.0
 10
65.261049
 20
152.993308
 30
0.0
  0
SPLINE
  5
207
100
AcDbEntity
  8
Layer_1
 62
7
100
AcDbSpline
 70
8
 71
3
 72
8
 73
4
 74
0
 40
0
 40
0
 40
0
 40
0
 40
1
 40
1
 40
1
 40
1
 10
62.261049
 20
169.319977
 30
0.0
 10
62.261049
 20
170.034508
 30
0.0
 10
62.642247
 20
170.694762
 30
0.0
 10
63.261049
 20
171.052028
 30
0.0
  0
SPLINE
  5
208
100
AcDbEntity
  8
Layer_1
 62
7
100
AcDbSpline
 70
8
 71
3
 72
8
 73
4
 74
0
 40
0
 40
0
 40
0
 40
0
 40
1
 40
1
 40
1
 40
1
 10
63.261049
 20
171.052028
 30
0.0
 10
63.879851
 20
171.409294
 30
0.0
 10
64.642247
 20
171.409294
 30
0.0
 10
65.261049
 20
171.052028
 30
0.0
  0
LWPOLYLINE
  5
209
100
AcDbEntity
  8
Layer_1
 62
7
100
AcDbPolyline
 90
2
 70
0
 10
62.261049
 20
154.725358
 30
0.0
 10
62.261049
 20
169.319977
 30
0.0
  0
SPLINE
  5
20a
100
AcDbEntity
  8
Layer_1
 62
7
100
AcDbSpline
 70
8
 71
3
 72
8
 73
4
 74
0
 40
0
 40
0
 40
0
 40
0
 40
1
 40
1
 40
1
 40
1
 10
77.900359
 20
163.754718
 30
0.0
 10
78.519161
 20
163.397452
 30
0.0
 10
78.900358
 20
162.737198
 30
0.0
 10
78.900358
 20
162.022668
 30
0.0
  0
SPLINE
  5
20b
100
AcDbEntity
  8
Layer_1
 62
7
100
AcDbSpline
 70
8
 71
3
 72
8
 73
4
 74
0
 40
0
 40
0
 40
0
 40
0
 40
1
 40
1
 40
1
 40
1
 10
78.900358
 20
162.022668
 30
0.0
 10
78.900358
 20
161.308137
 30
0.0
 10
78.519161
 20
160.647883
 30
0.0
 10
77.900359
 20
160.290617
 30
0.0
  0
LWPOLYLINE
  5
20c
100
AcDbEntity
  8
Layer_1
 62
7
100
AcDbPolyline
 90
2
 70
0
 10
65.261049
 20
171.052028
 30
0.0
 10
77.900359
 20
163.754718
 30
0.0
  0
LWPOLYLINE
  5
20d
100
AcDbEntity
  8
Layer_1
 62
7
100
AcDbPolyline
 90
1
 70
1
 10
77.900359
 20
160.290617
 30
0.0
  0
SPLINE
  5
20e
100
AcDbEntity
  8
Layer_1
 62
7
100
AcDbSpline
 70
8
 71
3
 72
8
 73
4
 74
0
 40
0
 40
0
 40
0
 40
0
 40
1
 40
1
 40
1
 40
1
 10
99.839669
 20
151.088052
 30
0.0
 10
100.458471
 20
150.730786
 30
0.0
 10
100.839669
 20
150.070532
 30
0.0
 10
100.839669
 20
149.356001
 30
0.0
  0
SPLINE
  5
20f
100
AcDbEntity
  8
Layer_1
 62
7
100
AcDbSpline
 70
8
 71
3
 72
8
 73
4
 74
0
 40
0
 40
0
 40
0
 40
0
 40
1
 40
1
 40
1
 40
1
 10
100.839669
 20
149.356001
 30
0.0
 10
100.839669
 20
148.641470
 30
0.0
 10
100.458471
 20
147.981216
 30
0.0
 10
99.839669
 20
147.623950
 30
0.0
  0
LWPOLYLINE
  5
210
100
AcDbEntity
  8
Layer_1
 62
7
100
AcDbPolyline
 90
2
 70
0
 10
87.200359
 20
158.385361
 30
0.0
 10
99.839669
 20
151.088052
 30
0.0
  0
SPLINE
  5
211
100
AcDbEntity
  8
Layer_1
 62
7
100
AcDbSpline
 70
8
 71
3
 72
8
 73
4
 74
0
 40
0
 40
0
 40
0
 40
0
 40
1
 40
1
 40
1
 40
1
 10
87.200359
 20
140.326641
 30
0.0
 10
86.581557
 20
139.969375
 30
0.0
 10
85.819161
 20
139.969375
 30
0.0
 10
85.200359
 20
140.326641
 30
0.0
  0
SPLINE
  5
212
100
AcDbEntity
  8
Layer_1
 62
7
100
AcDbSpline
 70
8
 71
3
 72
8
 73
4
 74
0
 40
0
 40
0
 40
0
 40
0
 40
1
 40
1
 40
1
 40
1
 10
85.200359
 20
140.326641
 30
0.0
 10
84.581557
 20
140.683907
 30
0.0
 10
84.200359
 20
141.344161
 30
0.0
 10
84.200359
 20
142.058692
 30
0.0
  0
LWPOLYLINE
  5
213
100
AcDbEntity
  8
Layer_1
 62
7
100
AcDbPolyline
 90
2
 70
0
 10
99.839669
 20
147.623950
 30
0.0
 10
87.200359
 20
140.326641
 30
0.0
  0
SPLINE
  5
214
100
AcDbEntity
  8
Layer_1
 62
7
100
AcDbSpline
 70
8
 71
3
 72
8
 73
4
 74
0
 40
0
 40
0
 40
0
 40
0
 40
1
 40
1
 40
1
 40
1
 10
84.200359
 20
156.653310
 30
0.0
 10
84.200359
 20
157.367841
 30
0.0
 10
84.581557
 20
158.028095
 30
0.0
 10
85.200359
 20
158.385361
 30
0.0
  0
SPLINE
  5
215
100
AcDbEntity
  8
Layer_1
 62
7
100
AcDbSpline
 70
8
 71
3
 72
8
 73
4
 74
0
 40
0
 40
0
 40
0
 40
0
 40
1
 40
1
 40
1
 40
1
 10
85.200359
 20
158.385361
 30
0.0
 10
85.819161
 20
158.742627
 30
0.0
 10
86.581557
 20
158.742627
 30
0.0
 10
87.200359
 20
158.385361
 30
0.0
  0
LWPOLYLINE
  5
216
100
AcDbEntity
  8
Layer_1
 62
7
100
AcDbPolyline
 90
2
 70
0
 10
84.200359
 20
142.058692
 30
0.0
 10
84.200359
 20
156.653310
 30
0.0
  0
LWPOLYLINE
  5
217
100
AcDbEntity
  8
Layer_1
 62
7
100
AcDbPolyline
 90
1
 70
1
 10
87.200359
 20
158.385361
 30
0.0
  0
SPLINE
  5
218
100
AcDbEntity
  8
Layer_1
 62
7
100
AcDbSpline
 70
8
 71
3
 72
8
 73
4
 74
0
 40
0
 40
0
 40
0
 40
0
 40
1
 40
1
 40
1
 40
1
 10
79.000359
 20
158.385361
 30
0.0
 10
79.619161
 20
158.742627
 30
0.0
 10
80.381557
 20
158.742627
 30
0.0
 10
81.000359
 20
158.385361
 30
0.0
  0
SPLINE
  5
219
100
AcDbEntity
  8
Layer_1
 62
7
100
AcDbSpline
 70
8
 71
3
 72
8
 73
4
 74
0
 40
0
 40
0
 40
0
 40
0
 40
1
 40
1
 40
1
 40
1
 10
81.000359
 20
158.385361
 30
0.0
 10
81.619161
 20
158.028095
 30
0.0
 10
82.000359
 20
157.367841
 30
0.0
 10
82.000359
 20
156.653310
 30
0.0
  0
LWPOLYLINE
  5
21a
100
AcDbEntity
  8
Layer_1
 62
7
100
AcDbPolyline
 90
2
 70
0
 10
66.361049
 20
151.088052
 30
0.0
 10
79.000359
 20
158.385361
 30
0.0
  0
SPLINE
  5
21b
100
AcDbEntity
  8
Layer_1
 62
7
100
AcDbSpline
 70
8
 71
3
 72
8
 73
4
 74
0
 40
0
 40
0
 40
0
 40
0
 40
1
 40
1
 40
1
 40
1
 10
82.000359
 20
142.058692
 30
0.0
 10
82.000359
 20
141.344161
 30
0.0
 10
81.619161
 20
140.683907
 30
0.0
 10
81.000359
 20
140.326641
 30
0.0
  0
SPLINE
  5
21c
100
AcDbEntity
  8
Layer_1
 62
7
100
AcDbSpline
 70
8
 71
3
 72
8
 73
4
 74
0
 40
0
 40
0
 40
0
 40
0
 40
1
 40
1
 40
1
 40
1
 10
81.000359
 20
140.326641
 30
0.0
 10
80.381557
 20
139.969375
 30
0.0
 10
79.619161
 20
139.969375
 30
0.0
 10
79.000359
 20
140.326641
 30
0.0
  0
LWPOLYLINE
  5
21d
100
AcDbEntity
  8
Layer_1
 62
7
100
AcDbPolyline
 90
2
 70
0
 10
82.000359
 20
156.653310
 30
0.0
 10
82.000359
 20
142.058692
 30
0.0
  0
SPLINE
  5
21e
100
AcDbEntity
  8
Layer_1
 62
7
100
AcDbSpline
 70
8
 71
3
 72
8
 73
4
 74
0
 40
0
 40
0
 40
0
 40
0
 40
1
 40
1
 40
1
 40
1
 10
66.361049
 20
147.623950
 30
0.0
 10
65.742247
 20
147.981216
 30
0.0
 10
65.361049
 20
148.641470
 30
0.0
 10
65.361049
 20
149.356001
 30
0.0
  0
SPLINE
  5
21f
100
AcDbEntity
  8
Layer_1
 62
7
100
AcDbSpline
 70
8
 71
3
 72
8
 73
4
 74
0
 40
0
 40
0
 40
0
 40
0
 40
1
 40
1
 40
1
 40
1
 10
65.361049
 20
149.356001
 30
0.0
 10
65.361049
 20
150.070532
 30
0.0
 10
65.742247
 20
150.730786
 30
0.0
 10
66.361049
 20
151.088052
 30
0.0
  0
LWPOLYLINE
  5
220
100
AcDbEntity
  8
Layer_1
 62
7
100
AcDbPolyline
 90
2
 70
0
 10
79.000359
 20
140.326641
 30
0.0
 10
66.361049
 20
147.623950
 30
0.0
  0
LWPOLYLINE
  5
221
100
AcDbEntity
  8
Layer_1
 62
7
100
AcDbPolyline
 90
1
 70
1
 10
66.361049
 20
151.088052
 30
0.0
  0
SPLINE
  5
222
100
AcDbEntity
  8
Layer_1
 62
7
100
AcDbSpline
 70
8
 71
3
 72
8
 73
4
 74
0
 40
0
 40
0
 40
0
 40
0
 40
1
 40
1
 40
1
 40
1
 10
43.321739
 20
165.659974
 30
0.0
 10
42.702937
 20
165.302708
 30
0.0
 10
41.940541
 20
165.302708
 30
0.0
 10
41.321739
 20
165.659974
 30
0.0
  0
SPLINE
  5
223
100
AcDbEntity
  8
Layer_1
 62
7
100
AcDbSpline
 70
8
 71
3
 72
8
 73
4
 74
0
 40
0
 40
0
 40
0
 40
0
 40
1
 40
1
 40
1
 40
1
 10
41.321739
 20
165.659974
 30
0.0
 10
40.702937
 20
166.017240
 30
0.0
 10
40.321739
 20
166.677494
 30
0.0
 10
40.321739
 20
167.392025
 30
0.0
  0
LWPOLYLINE
  5
224
100
AcDbEntity
  8
Layer_1
 62
7
100
AcDbPolyline
 90
2
 70
0
 10
55.961049
 20
172.957283
 30
0.0
 10
43.321739
 20
165.659974
 30
0.0
  0
SPLINE
  5
225
100
AcDbEntity
  8
Layer_1
 62
7
100
AcDbSpline
 70
8
 71
3
 72
8
 73
4
 74
0
 40
0
 40
0
 40
0
 40
0
 40
1
 40
1
 40
1
 40
1
 10
40.321739
 20
181.986643
 30
0.0
 10
40.321739
 20
182.701174
 30
0.0
 10
40.702937
 20
183.361428
 30
0.0
 10
41.321739
 20
183.718694
 30
0.0
  0
SPLINE
  5
226
100
AcDbEntity
  8
Layer_1
 62
7
100
AcDbSpline
 70
8
 71
3
 72
8
 73
4
 74
0
 40
0
 40
0
 40
0
 40
0
 40
1
 40
1
 40
1
 40
1
 10
41.321739
 20
183.718694
 30
0.0
 10
41.940541
 20
184.075960
 30
0.0
 10
42.702937
 20
184.075960
 30
0.0
 10
43.321739
 20
183.718694
 30
0.0
  0
LWPOLYLINE
  5
227
100
AcDbEntity
  8
Layer_1
 62
7
100
AcDbPolyline
 90
2
 70
0
 10
40.321739
 20
167.392025
 30
0.0
 10
40.321739
 20
181.986643
 30
0.0
  0
SPLINE
  5
228
100
AcDbEntity
  8
Layer_1
 62
7
100
AcDbSpline
 70
8
 71
3
 72
8
 73
4
 74
0
 40
0
 40
0
 40
0
 40
0
 40
1
 40
1
 40
1
 40
1
 10
55.961049
 20
176.421385
 30
0.0
 10
56.579851
 20
176.064119
 30
0.0
 10
56.961049
 20
175.403865
 30
0.0
 10
56.961049
 20
174.689334
 30
0.0
  0
SPLINE
  5
229
100
AcDbEntity
  8
Layer_1
 62
7
100
AcDbSpline
 70
8
 71
3
 72
8
 73
4
 74
0
 40
0
 40
0
 40
0
 40
0
 40
1
 40
1
 40
1
 40
1
 10
56.961049
 20
174.689334
 30
0.0
 10
56.961049
 20
173.974803
 30
0.0
 10
56.579851
 20
173.314549
 30
0.0
 10
55.961049
 20
172.957283
 30
0.0
  0
LWPOLYLINE
  5
22a
100
AcDbEntity
  8
Layer_1
 62
7
100
AcDbPolyline
 90
2
 70
0
 10
43.321739
 20
183.718694
 30
0.0
 10
55.961049
 20
176.421385
 30
0.0
  0
LWPOLYLINE
  5
22b
100
AcDbEntity
  8
Layer_1
 62
7
100
AcDbPolyline
 90
1
 70
1
 10
55.961049
 20
172.957283
 30
0.0
  0
SPLINE
  5
22c
100
AcDbEntity
  8
Layer_1
 62
7
100
AcDbSpline
 70
8
 71
3
 72
8
 73
4
 74
0
 40
0
 40
0
 40
0
 40
0
 40
1
 40
1
 40
1
 40
1
 10
131.078980
 20
114.993308
 30
0.0
 10
130.460178
 20
114.636042
 30
0.0
 10
129.697782
 20
114.636042
 30
0.0
 10
129.078980
 20
114.993308
 30
0.0
  0
SPLINE
  5
22d
100
AcDbEntity
  8
Layer_1
 62
7
100
AcDbSpline
 70
8
 71
3
 72
8
 73
4
 74
0
 40
0
 40
0
 40
0
 40
0
 40
1
 40
1
 40
1
 40
1
 10
129.078980
 20
114.993308
 30
0.0
 10
128.460178
 20
115.350573
 30
0.0
 10
128.078980
 20
116.010827
 30
0.0
 10
128.078980
 20
116.725358
 30
0.0
  0
LWPOLYLINE
  5
22e
100
AcDbEntity
  8
Layer_1
 62
7
100
AcDbPolyline
 90
2
 70
0
 10
143.718290
 20
122.290617
 30
0.0
 10
131.078980
 20
114.993308
 30
0.0
  0
SPLINE
  5
22f
100
AcDbEntity
  8
Layer_1
 62
7
100
AcDbSpline
 70
8
 71
3
 72
8
 73
4
 74
0
 40
0
 40
0
 40
0
 40
0
 40
1
 40
1
 40
1
 40
1
 10
128.078980
 20
131.319977
 30
0.0
 10
128.078980
 20
132.034508
 30
0.0
 10
128.460178
 20
132.694762
 30
0.0
 10
129.078980
 20
133.052028
 30
0.0
  0
SPLINE
  5
230
100
AcDbEntity
  8
Layer_1
 62
7
100
AcDbSpline
 70
8
 71
3
 72
8
 73
4
 74
0
 40
0
 40
0
 40
0
 40
0
 40
1
 40
1
 40
1
 40
1
 10
129.078980
 20
133.052028
 30
0.0
 10
129.697782
 20
133.409294
 30
0.0
 10
130.460178
 20
133.409294
 30
0.0
 10
131.078980
 20
133.052028
 30
0.0
  0
LWPOLYLINE
  5
231
100
AcDbEntity
  8
Layer_1
 62
7
100
AcDbPolyline
 90
2
 70
0
 10
128.078980
 20
116.725358
 30
0.0
 10
128.078980
 20
131.319977
 30
0.0
  0
SPLINE
  5
232
100
AcDbEntity
  8
Layer_1
 62
7
100
AcDbSpline
 70
8
 71
3
 72
8
 73
4
 74
0
 40
0
 40
0
 40
0
 40
0
 40
1
 40
1
 40
1
 40
1
 10
143.718290
 20
125.754718
 30
0.0
 10
144.337092
 20
125.397452
 30
0.0
 10
144.718289
 20
124.737198
 30
0.0
 10
144.718289
 20
124.022668
 30
0.0
  0
SPLINE
  5
233
100
AcDbEntity
  8
Layer_1
 62
7
100
AcDbSpline
 70
8
 71
3
 72
8
 73
4
 74
0
 40
0
 40
0
 40
0
 40
0
 40
1
 40
1
 40
1
 40
1
 10
144.718289
 20
124.022668
 30
0.0
 10
144.718289
 20
123.308137
 30
0.0
 10
144.337092
 20
122.647883
 30
0.0
 10
143.718290
 20
122.290617
 30
0.0
  0
LWPOLYLINE
  5
234
100
AcDbEntity
  8
Layer_1
 62
7
100
AcDbPolyline
 90
2
 70
0
 10
131.078980
 20
133.052028
 30
0.0
 10
143.718290
 20
125.754718
 30
0.0
  0
LWPOLYLINE
  5
235
100
AcDbEntity
  8
Layer_1
 62
7
100
AcDbPolyline
 90
1
 70
1
 10
143.718290
 20
122.290617
 30
0.0
  0
SPLINE
  5
236
100
AcDbEntity
  8
Layer_1
 62
7
100
AcDbSpline
 70
8
 71
3
 72
8
 73
4
 74
0
 40
0
 40
0
 40
0
 40
0
 40
1
 40
1
 40
1
 40
1
 10
147.818290
 20
129.392025
 30
0.0
 10
147.818290
 20
128.677494
 30
0.0
 10
147.437092
 20
128.017240
 30
0.0
 10
146.818290
 20
127.659974
 30
0.0
  0
SPLINE
  5
237
100
AcDbEntity
  8
Layer_1
 62
7
100
AcDbSpline
 70
8
 71
3
 72
8
 73
4
 74
0
 40
0
 40
0
 40
0
 40
0
 40
1
 40
1
 40
1
 40
1
 10
146.818290
 20
127.659974
 30
0.0
 10
146.199488
 20
127.302708
 30
0.0
 10
145.437092
 20
127.302708
 30
0.0
 10
144.818290
 20
127.659974
 30
0.0
  0
LWPOLYLINE
  5
238
100
AcDbEntity
  8
Layer_1
 62
7
100
AcDbPolyline
 90
2
 70
0
 10
147.818290
 20
143.986643
 30
0.0
 10
147.818290
 20
129.392025
 30
0.0
  0
SPLINE
  5
239
100
AcDbEntity
  8
Layer_1
 62
7
100
AcDbSpline
 70
8
 71
3
 72
8
 73
4
 74
0
 40
0
 40
0
 40
0
 40
0
 40
1
 40
1
 40
1
 40
1
 10
132.178980
 20
134.957283
 30
0.0
 10
131.560178
 20
135.314549
 30
0.0
 10
131.178980
 20
135.974803
 30
0.0
 10
131.178980
 20
136.689334
 30
0.0
  0
SPLINE
  5
23a
100
AcDbEntity
  8
Layer_1
 62
7
100
AcDbSpline
 70
8
 71
3
 72
8
 73
4
 74
0
 40
0
 40
0
 40
0
 40
0
 40
1
 40
1
 40
1
 40
1
 10
131.178980
 20
136.689334
 30
0.0
 10
131.178980
 20
137.403865
 30
0.0
 10
131.560178
 20
138.064119
 30
0.0
 10
132.178980
 20
138.421385
 30
0.0
  0
LWPOLYLINE
  5
23b
100
AcDbEntity
  8
Layer_1
 62
7
100
AcDbPolyline
 90
2
 70
0
 10
144.818290
 20
127.659974
 30
0.0
 10
132.178980
 20
134.957283
 30
0.0
  0
SPLINE
  5
23c
100
AcDbEntity
  8
Layer_1
 62
7
100
AcDbSpline
 70
8
 71
3
 72
8
 73
4
 74
0
 40
0
 40
0
 40
0
 40
0
 40
1
 40
1
 40
1
 40
1
 10
144.818290
 20
145.718694
 30
0.0
 10
145.437092
 20
146.075960
 30
0.0
 10
146.199488
 20
146.075960
 30
0.0
 10
146.818290
 20
145.718694
 30
0.0
  0
SPLINE
  5
23d
100
AcDbEntity
  8
Layer_1
 62
7
100
AcDbSpline
 70
8
 71
3
 72
8
 73
4
 74
0
 40
0
 40
0
 40
0
 40
0
 40
1
 40
1
 40
1
 40
1
 10
146.818290
 20
145.718694
 30
0.0
 10
147.437092
 20
145.361428
 30
0.0
 10
147.818290
 20
144.701174
 30
0.0
 10
147.818290
 20
143.986643
 30
0.0
  0
LWPOLYLINE
  5
23e
100
AcDbEntity
  8
Layer_1
 62
7
100
AcDbPolyline
 90
2
 70
0
 10
132.178980
 20
138.421385
 30
0.0
 10
144.818290
 20
145.718694
 30
0.0
  0
LWPOLYLINE
  5
23f
100
AcDbEntity
  8
Layer_1
 62
7
100
AcDbPolyline
 90
1
 70
1
 10
147.818290
 20
143.986643
 30
0.0
  0
SPLINE
  5
240
100
AcDbEntity
  8
Layer_1
 62
7
100
AcDbSpline
 70
8
 71
3
 72
8
 73
4
 74
0
 40
0
 40
0
 40
0
 40
0
 40
1
 40
1
 40
1
 40
1
 10
150.018290
 20
143.986643
 30
0.0
 10
150.018290
 20
144.701174
 30
0.0
 10
150.399488
 20
145.361428
 30
0.0
 10
151.018290
 20
145.718694
 30
0.0
  0
SPLINE
  5
241
100
AcDbEntity
  8
Layer_1
 62
7
100
AcDbSpline
 70
8
 71
3
 72
8
 73
4
 74
0
 40
0
 40
0
 40
0
 40
0
 40
1
 40
1
 40
1
 40
1
 10
151.018290
 20
145.718694
 30
0.0
 10
151.637092
 20
146.075960
 30
0.0
 10
152.399488
 20
146.075960
 30
0.0
 10
153.018290
 20
145.718694
 30
0.0
  0
LWPOLYLINE
  5
242
100
AcDbEntity
  8
Layer_1
 62
7
100
AcDbPolyline
 90
2
 70
0
 10
150.018290
 20
129.392025
 30
0.0
 10
150.018290
 20
143.986643
 30
0.0
  0
SPLINE
  5
243
100
AcDbEntity
  8
Layer_1
 62
7
100
AcDbSpline
 70
8
 71
3
 72
8
 73
4
 74
0
 40
0
 40
0
 40
0
 40
0
 40
1
 40
1
 40
1
 40
1
 10
165.657600
 20
138.421385
 30
0.0
 10
166.276402
 20
138.064119
 30
0.0
 10
166.657600
 20
137.403865
 30
0.0
 10
166.657600
 20
136.689334
 30
0.0
  0
SPLINE
  5
244
100
AcDbEntity
  8
Layer_1
 62
7
100
AcDbSpline
 70
8
 71
3
 72
8
 73
4
 74
0
 40
0
 40
0
 40
0
 40
0
 40
1
 40
1
 40
1
 40
1
 10
166.657600
 20
136.689334
 30
0.0
 10
166.657600
 20
135.974803
 30
0.0
 10
166.276402
 20
135.314549
 30
0.0
 10
165.657600
 20
134.957283
 30
0.0
  0
LWPOLYLINE
  5
245
100
AcDbEntity
  8
Layer_1
 62
7
100
AcDbPolyline
 90
2
 70
0
 10
153.018290
 20
145.718694
 30
0.0
 10
165.657600
 20
138.421385
 30
0.0
  0
SPLINE
  5
246
100
AcDbEntity
  8
Layer_1
 62
7
100
AcDbSpline
 70
8
 71
3
 72
8
 73
4
 74
0
 40
0
 40
0
 40
0
 40
0
 40
1
 40
1
 40
1
 40
1
 10
153.018290
 20
127.659974
 30
0.0
 10
152.399488
 20
127.302708
 30
0.0
 10
151.637092
 20
127.302708
 30
0.0
 10
151.018290
 20
127.659974
 30
0.0
  0
SPLINE
  5
247
100
AcDbEntity
  8
Layer_1
 62
7
100
AcDbSpline
 70
8
 71
3
 72
8
 73
4
 74
0
 40
0
 40
0
 40
0
 40
0
 40
1
 40
1
 40
1
 40
1
 10
151.018290
 20
127.659974
 30
0.0
 10
150.399488
 20
128.017240
 30
0.0
 10
150.018290
 20
128.677494
 30
0.0
 10
150.018290
 20
129.392025
 30
0.0
  0
LWPOLYLINE
  5
248
100
AcDbEntity
  8
Layer_1
 62
7
100
AcDbPolyline
 90
2
 70
0
 10
165.657600
 20
134.957283
 30
0.0
 10
153.018290
 20
127.659974
 30
0.0
  0
LWPOLYLINE
  5
249
100
AcDbEntity
  8
Layer_1
 62
7
100
AcDbPolyline
 90
1
 70
1
 10
150.018290
 20
129.392025
 30
0.0
  0
SPLINE
  5
24a
100
AcDbEntity
  8
Layer_1
 62
7
100
AcDbSpline
 70
8
 71
3
 72
8
 73
4
 74
0
 40
0
 40
0
 40
0
 40
0
 40
1
 40
1
 40
1
 40
1
 10
88.300359
 20
160.290617
 30
0.0
 10
87.681557
 20
160.647883
 30
0.0
 10
87.300360
 20
161.308137
 30
0.0
 10
87.300360
 20
162.022667
 30
0.0
  0
SPLINE
  5
24b
100
AcDbEntity
  8
Layer_1
 62
7
100
AcDbSpline
 70
8
 71
3
 72
8
 73
4
 74
0
 40
0
 40
0
 40
0
 40
0
 40
1
 40
1
 40
1
 40
1
 10
87.300360
 20
162.022667
 30
0.0
 10
87.300360
 20
162.737198
 30
0.0
 10
87.681557
 20
163.397452
 30
0.0
 10
88.300359
 20
163.754718
 30
0.0
  0
LWPOLYLINE
  5
24c
100
AcDbEntity
  8
Layer_1
 62
7
100
AcDbPolyline
 90
2
 70
0
 10
100.939669
 20
152.993308
 30
0.0
 10
88.300359
 20
160.290617
 30
0.0
  0
SPLINE
  5
24d
100
AcDbEntity
  8
Layer_1
 62
7
100
AcDbSpline
 70
8
 71
3
 72
8
 73
4
 74
0
 40
0
 40
0
 40
0
 40
0
 40
1
 40
1
 40
1
 40
1
 10
100.939669
 20
171.052028
 30
0.0
 10
101.558471
 20
171.409294
 30
0.0
 10
102.320867
 20
171.409294
 30
0.0
 10
102.939669
 20
171.052028
 30
0.0
  0
SPLINE
  5
24e
100
AcDbEntity
  8
Layer_1
 62
7
100
AcDbSpline
 70
8
 71
3
 72
8
 73
4
 74
0
 40
0
 40
0
 40
0
 40
0
 40
1
 40
1
 40
1
 40
1
 10
102.939669
 20
171.052028
 30
0.0
 10
103.558471
 20
170.694762
 30
0.0
 10
103.939669
 20
170.034508
 30
0.0
 10
103.939669
 20
169.319977
 30
0.0
  0
LWPOLYLINE
  5
24f
100
AcDbEntity
  8
Layer_1
 62
7
100
AcDbPolyline
 90
2
 70
0
 10
88.300359
 20
163.754718
 30
0.0
 10
100.939669
 20
171.052028
 30
0.0
  0
SPLINE
  5
250
100
AcDbEntity
  8
Layer_1
 62
7
100
AcDbSpline
 70
8
 71
3
 72
8
 73
4
 74
0
 40
0
 40
0
 40
0
 40
0
 40
1
 40
1
 40
1
 40
1
 10
103.939669
 20
154.725358
 30
0.0
 10
103.939669
 20
154.010827
 30
0.0
 10
103.558471
 20
153.350573
 30
0.0
 10
102.939669
 20
152.993308
 30
0.0
  0
SPLINE
  5
251
100
AcDbEntity
  8
Layer_1
 62
7
100
AcDbSpline
 70
8
 71
3
 72
8
 73
4
 74
0
 40
0
 40
0
 40
0
 40
0
 40
1
 40
1
 40
1
 40
1
 10
102.939669
 20
152.993308
 30
0.0
 10
102.320867
 20
152.636042
 30
0.0
 10
101.558471
 20
152.636042
 30
0.0
 10
100.939669
 20
152.993308
 30
0.0
  0
LWPOLYLINE
  5
252
100
AcDbEntity
  8
Layer_1
 62
7
100
AcDbPolyline
 90
2
 70
0
 10
103.939669
 20
169.319977
 30
0.0
 10
103.939669
 20
154.725358
 30
0.0
  0
LWPOLYLINE
  5
253
100
AcDbEntity
  8
Layer_1
 62
7
100
AcDbPolyline
 90
1
 70
1
 10
100.939669
 20
152.993308
 30
0.0
  0
SPLINE
  5
254
100
AcDbEntity
  8
Layer_1
 62
7
100
AcDbSpline
 70
8
 71
3
 72
8
 73
4
 74
0
 40
0
 40
0
 40
0
 40
0
 40
1
 40
1
 40
1
 40
1
 10
109.139669
 20
152.993308
 30
0.0
 10
108.520867
 20
152.636042
 30
0.0
 10
107.758471
 20
152.636042
 30
0.0
 10
107.139669
 20
152.993308
 30
0.0
  0
SPLINE
  5
255
100
AcDbEntity
  8
Layer_1
 62
7
100
AcDbSpline
 70
8
 71
3
 72
8
 73
4
 74
0
 40
0
 40
0
 40
0
 40
0
 40
1
 40
1
 40
1
 40
1
 10
107.139669
 20
152.993308
 30
0.0
 10
106.520867
 20
153.350573
 30
0.0
 10
106.139669
 20
154.010827
 30
0.0
 10
106.139669
 20
154.725358
 30
0.0
  0
LWPOLYLINE
  5
256
100
AcDbEntity
  8
Layer_1
 62
7
100
AcDbPolyline
 90
2
 70
0
 10
121.778980
 20
160.290617
 30
0.0
 10
109.139669
 20
152.993308
 30
0.0
  0
SPLINE
  5
257
100
AcDbEntity
  8
Layer_1
 62
7
100
AcDbSpline
 70
8
 71
3
 72
8
 73
4
 74
0
 40
0
 40
0
 40
0
 40
0
 40
1
 40
1
 40
1
 40
1
 10
106.139669
 20
169.319977
 30
0.0
 10
106.139669
 20
170.034508
 30
0.0
 10
106.520867
 20
170.694762
 30
0.0
 10
107.139669
 20
171.052028
 30
0.0
  0
SPLINE
  5
258
100
AcDbEntity
  8
Layer_1
 62
7
100
AcDbSpline
 70
8
 71
3
 72
8
 73
4
 74
0
 40
0
 40
0
 40
0
 40
0
 40
1
 40
1
 40
1
 40
1
 10
107.139669
 20
171.052028
 30
0.0
 10
107.758471
 20
171.409294
 30
0.0
 10
108.520867
 20
171.409294
 30
0.0
 10
109.139669
 20
171.052028
 30
0.0
  0
LWPOLYLINE
  5
259
100
AcDbEntity
  8
Layer_1
 62
7
100
AcDbPolyline
 90
2
 70
0
 10
106.139669
 20
154.725358
 30
0.0
 10
106.139669
 20
169.319977
 30
0.0
  0
SPLINE
  5
25a
100
AcDbEntity
  8
Layer_1
 62
7
100
AcDbSpline
 70
8
 71
3
 72
8
 73
4
 74
0
 40
0
 40
0
 40
0
 40
0
 40
1
 40
1
 40
1
 40
1
 10
121.778980
 20
163.754718
 30
0.0
 10
122.397782
 20
163.397452
 30
0.0
 10
122.778979
 20
162.737198
 30
0.0
 10
122.778979
 20
162.022668
 30
0.0
  0
SPLINE
  5
25b
100
AcDbEntity
  8
Layer_1
 62
7
100
AcDbSpline
 70
8
 71
3
 72
8
 73
4
 74
0
 40
0
 40
0
 40
0
 40
0
 40
1
 40
1
 40
1
 40
1
 10
122.778979
 20
162.022668
 30
0.0
 10
122.778979
 20
161.308137
 30
0.0
 10
122.397782
 20
160.647883
 30
0.0
 10
121.778980
 20
160.290617
 30
0.0
  0
LWPOLYLINE
  5
25c
100
AcDbEntity
  8
Layer_1
 62
7
100
AcDbPolyline
 90
2
 70
0
 10
109.139669
 20
171.052028
 30
0.0
 10
121.778980
 20
163.754718
 30
0.0
  0
LWPOLYLINE
  5
25d
100
AcDbEntity
  8
Layer_1
 62
7
100
AcDbPolyline
 90
1
 70
1
 10
121.778980
 20
160.290617
 30
0.0
  0
SPLINE
  5
25e
100
AcDbEntity
  8
Layer_1
 62
7
100
AcDbSpline
 70
8
 71
3
 72
8
 73
4
 74
0
 40
0
 40
0
 40
0
 40
0
 40
1
 40
1
 40
1
 40
1
 10
143.718290
 20
151.088052
 30
0.0
 10
144.337092
 20
150.730786
 30
0.0
 10
144.718290
 20
150.070532
 30
0.0
 10
144.718290
 20
149.356001
 30
0.0
  0
SPLINE
  5
25f
100
AcDbEntity
  8
Layer_1
 62
7
100
AcDbSpline
 70
8
 71
3
 72
8
 73
4
 74
0
 40
0
 40
0
 40
0
 40
0
 40
1
 40
1
 40
1
 40
1
 10
144.718290
 20
149.356001
 30
0.0
 10
144.718290
 20
148.641470
 30
0.0
 10
144.337092
 20
147.981216
 30
0.0
 10
143.718290
 20
147.623950
 30
0.0
  0
LWPOLYLINE
  5
260
100
AcDbEntity
  8
Layer_1
 62
7
100
AcDbPolyline
 90
2
 70
0
 10
131.078980
 20
158.385361
 30
0.0
 10
143.718290
 20
151.088052
 30
0.0
  0
SPLINE
  5
261
100
AcDbEntity
  8
Layer_1
 62
7
100
AcDbSpline
 70
8
 71
3
 72
8
 73
4
 74
0
 40
0
 40
0
 40
0
 40
0
 40
1
 40
1
 40
1
 40
1
 10
131.078980
 20
140.326641
 30
0.0
 10
130.460178
 20
139.969375
 30
0.0
 10
129.697782
 20
139.969375
 30
0.0
 10
129.078980
 20
140.326641
 30
0.0
  0
SPLINE
  5
262
100
AcDbEntity
  8
Layer_1
 62
7
100
AcDbSpline
 70
8
 71
3
 72
8
 73
4
 74
0
 40
0
 40
0
 40
0
 40
0
 40
1
 40
1
 40
1
 40
1
 10
129.078980
 20
140.326641
 30
0.0
 10
128.460178
 20
140.683907
 30
0.0
 10
128.078980
 20
141.344161
 30
0.0
 10
128.078980
 20
142.058692
 30
0.0
  0
LWPOLYLINE
  5
263
100
AcDbEntity
  8
Layer_1
 62
7
100
AcDbPolyline
 90
2
 70
0
 10
143.718290
 20
147.623950
 30
0.0
 10
131.078980
 20
140.326641
 30
0.0
  0
SPLINE
  5
264
100
AcDbEntity
  8
Layer_1
 62
7
100
AcDbSpline
 70
8
 71
3
 72
8
 73
4
 74
0
 40
0
 40
0
 40
0
 40
0
 40
1
 40
1
 40
1
 40
1
 10
128.078980
 20
156.653310
 30
0.0
 10
128.078980
 20
157.367841
 30
0.0
 10
128.460178
 20
158.028095
 30
0.0
 10
129.078980
 20
158.385361
 30
0.0
  0
SPLINE
  5
265
100
AcDbEntity
  8
Layer_1
 62
7
100
AcDbSpline
 70
8
 71
3
 72
8
 73
4
 74
0
 40
0
 40
0
 40
0
 40
0
 40
1
 40
1
 40
1
 40
1
 10
129.078980
 20
158.385361
 30
0.0
 10
129.697782
 20
158.742627
 30
0.0
 10
130.460178
 20
158.742627
 30
0.0
 10
131.078980
 20
158.385361
 30
0.0
  0
LWPOLYLINE
  5
266
100
AcDbEntity
  8
Layer_1
 62
7
100
AcDbPolyline
 90
2
 70
0
 10
128.078980
 20
142.058692
 30
0.0
 10
128.078980
 20
156.653310
 30
0.0
  0
LWPOLYLINE
  5
267
100
AcDbEntity
  8
Layer_1
 62
7
100
AcDbPolyline
 90
1
 70
1
 10
131.078980
 20
158.385361
 30
0.0
  0
SPLINE
  5
268
100
AcDbEntity
  8
Layer_1
 62
7
100
AcDbSpline
 70
8
 71
3
 72
8
 73
4
 74
0
 40
0
 40
0
 40
0
 40
0
 40
1
 40
1
 40
1
 40
1
 10
122.878980
 20
158.385361
 30
0.0
 10
123.497782
 20
158.742627
 30
0.0
 10
124.260178
 20
158.742627
 30
0.0
 10
124.878980
 20
158.385361
 30
0.0
  0
SPLINE
  5
269
100
AcDbEntity
  8
Layer_1
 62
7
100
AcDbSpline
 70
8
 71
3
 72
8
 73
4
 74
0
 40
0
 40
0
 40
0
 40
0
 40
1
 40
1
 40
1
 40
1
 10
124.878980
 20
158.385361
 30
0.0
 10
125.497782
 20
158.028095
 30
0.0
 10
125.878980
 20
157.367841
 30
0.0
 10
125.878980
 20
156.653310
 30
0.0
  0
LWPOLYLINE
  5
26a
100
AcDbEntity
  8
Layer_1
 62
7
100
AcDbPolyline
 90
2
 70
0
 10
110.239669
 20
151.088052
 30
0.0
 10
122.878980
 20
158.385361
 30
0.0
  0
SPLINE
  5
26b
100
AcDbEntity
  8
Layer_1
 62
7
100
AcDbSpline
 70
8
 71
3
 72
8
 73
4
 74
0
 40
0
 40
0
 40
0
 40
0
 40
1
 40
1
 40
1
 40
1
 10
125.878980
 20
142.058692
 30
0.0
 10
125.878980
 20
141.344161
 30
0.0
 10
125.497782
 20
140.683907
 30
0.0
 10
124.878980
 20
140.326641
 30
0.0
  0
SPLINE
  5
26c
100
AcDbEntity
  8
Layer_1
 62
7
100
AcDbSpline
 70
8
 71
3
 72
8
 73
4
 74
0
 40
0
 40
0
 40
0
 40
0
 40
1
 40
1
 40
1
 40
1
 10
124.878980
 20
140.326641
 30
0.0
 10
124.260178
 20
139.969375
 30
0.0
 10
123.497782
 20
139.969375
 30
0.0
 10
122.878980
 20
140.326641
 30
0.0
  0
LWPOLYLINE
  5
26d
100
AcDbEntity
  8
Layer_1
 62
7
100
AcDbPolyline
 90
2
 70
0
 10
125.878980
 20
156.653310
 30
0.0
 10
125.878980
 20
142.058692
 30
0.0
  0
SPLINE
  5
26e
100
AcDbEntity
  8
Layer_1
 62
7
100
AcDbSpline
 70
8
 71
3
 72
8
 73
4
 74
0
 40
0
 40
0
 40
0
 40
0
 40
1
 40
1
 40
1
 40
1
 10
110.239669
 20
147.623950
 30
0.0
 10
109.620867
 20
147.981216
 30
0.0
 10
109.239669
 20
148.641470
 30
0.0
 10
109.239669
 20
149.356001
 30
0.0
  0
SPLINE
  5
26f
100
AcDbEntity
  8
Layer_1
 62
7
100
AcDbSpline
 70
8
 71
3
 72
8
 73
4
 74
0
 40
0
 40
0
 40
0
 40
0
 40
1
 40
1
 40
1
 40
1
 10
109.239669
 20
149.356001
 30
0.0
 10
109.239669
 20
150.070532
 30
0.0
 10
109.620867
 20
150.730786
 30
0.0
 10
110.239669
 20
151.088052
 30
0.0
  0
LWPOLYLINE
  5
270
100
AcDbEntity
  8
Layer_1
 62
7
100
AcDbPolyline
 90
2
 70
0
 10
122.878980
 20
140.326641
 30
0.0
 10
110.239669
 20
147.623950
 30
0.0
  0
LWPOLYLINE
  5
271
100
AcDbEntity
  8
Layer_1
 62
7
100
AcDbPolyline
 90
1
 70
1
 10
110.239669
 20
151.088052
 30
0.0
  0
SPLINE
  5
272
100
AcDbEntity
  8
Layer_1
 62
7
100
AcDbSpline
 70
8
 71
3
 72
8
 73
4
 74
0
 40
0
 40
0
 40
0
 40
0
 40
1
 40
1
 40
1
 40
1
 10
132.178980
 20
160.290617
 30
0.0
 10
131.560178
 20
160.647883
 30
0.0
 10
131.178981
 20
161.308137
 30
0.0
 10
131.178981
 20
162.022667
 30
0.0
  0
SPLINE
  5
273
100
AcDbEntity
  8
Layer_1
 62
7
100
AcDbSpline
 70
8
 71
3
 72
8
 73
4
 74
0
 40
0
 40
0
 40
0
 40
0
 40
1
 40
1
 40
1
 40
1
 10
131.178981
 20
162.022667
 30
0.0
 10
131.178981
 20
162.737198
 30
0.0
 10
131.560178
 20
163.397452
 30
0.0
 10
132.178980
 20
163.754718
 30
0.0
  0
LWPOLYLINE
  5
274
100
AcDbEntity
  8
Layer_1
 62
7
100
AcDbPolyline
 90
2
 70
0
 10
144.818290
 20
152.993308
 30
0.0
 10
132.178980
 20
160.290617
 30
0.0
  0
SPLINE
  5
275
100
AcDbEntity
  8
Layer_1
 62
7
100
AcDbSpline
 70
8
 71
3
 72
8
 73
4
 74
0
 40
0
 40
0
 40
0
 40
0
 40
1
 40
1
 40
1
 40
1
 10
144.818290
 20
171.052028
 30
0.0
 10
145.437092
 20
171.409294
 30
0.0
 10
146.199488
 20
171.409294
 30
0.0
 10
146.818290
 20
171.052028
 30
0.0
  0
SPLINE
  5
276
100
AcDbEntity
  8
Layer_1
 62
7
100
AcDbSpline
 70
8
 71
3
 72
8
 73
4
 74
0
 40
0
 40
0
 40
0
 40
0
 40
1
 40
1
 40
1
 40
1
 10
146.818290
 20
171.052028
 30
0.0
 10
147.437092
 20
170.694762
 30
0.0
 10
147.818290
 20
170.034508
 30
0.0
 10
147.818290
 20
169.319977
 30
0.0
  0
LWPOLYLINE
  5
277
100
AcDbEntity
  8
Layer_1
 62
7
100
AcDbPolyline
 90
2
 70
0
 10
132.178980
 20
163.754718
 30
0.0
 10
144.818290
 20
171.052028
 30
0.0
  0
SPLINE
  5
278
100
AcDbEntity
  8
Layer_1
 62
7
100
AcDbSpline
 70
8
 71
3
 72
8
 73
4
 74
0
 40
0
 40
0
 40
0
 40
0
 40
1
 40
1
 40
1
 40
1
 10
147.818290
 20
154.725358
 30
0.0
 10
147.818290
 20
154.010827
 30
0.0
 10
147.437092
 20
153.350573
 30
0.0
 10
146.818290
 20
152.993308
 30
0.0
  0
SPLINE
  5
279
100
AcDbEntity
  8
Layer_1
 62
7
100
AcDbSpline
 70
8
 71
3
 72
8
 73
4
 74
0
 40
0
 40
0
 40
0
 40
0
 40
1
 40
1
 40
1
 40
1
 10
146.818290
 20
152.993308
 30
0.0
 10
146.199488
 20
152.636042
 30
0.0
 10
145.437092
 20
152.636042
 30
0.0
 10
144.818290
 20
152.993308
 30
0.0
  0
LWPOLYLINE
  5
27a
100
AcDbEntity
  8
Layer_1
 62
7
100
AcDbPolyline
 90
2
 70
0
 10
147.818290
 20
169.319977
 30
0.0
 10
147.818290
 20
154.725358
 30
0.0
  0
LWPOLYLINE
  5
27b
100
AcDbEntity
  8
Layer_1
 62
7
100
AcDbPolyline
 90
1
 70
1
 10
144.818290
 20
152.993308
 30
0.0
  0
SPLINE
  5
27c
100
AcDbEntity
  8
Layer_1
 62
7
100
AcDbSpline
 70
8
 71
3
 72
8
 73
4
 74
0
 40
0
 40
0
 40
0
 40
0
 40
1
 40
1
 40
1
 40
1
 10
153.018290
 20
152.993308
 30
0.0
 10
152.399488
 20
152.636042
 30
0.0
 10
151.637092
 20
152.636042
 30
0.0
 10
151.018290
 20
152.993308
 30
0.0
  0
SPLINE
  5
27d
100
AcDbEntity
  8
Layer_1
 62
7
100
AcDbSpline
 70
8
 71
3
 72
8
 73
4
 74
0
 40
0
 40
0
 40
0
 40
0
 40
1
 40
1
 40
1
 40
1
 10
151.018290
 20
152.993308
 30
0.0
 10
150.399488
 20
153.350573
 30
0.0
 10
150.018290
 20
154.010827
 30
0.0
 10
150.018290
 20
154.725358
 30
0.0
  0
LWPOLYLINE
  5
27e
100
AcDbEntity
  8
Layer_1
 62
7
100
AcDbPolyline
 90
2
 70
0
 10
165.657600
 20
160.290617
 30
0.0
 10
153.018290
 20
152.993308
 30
0.0
  0
SPLINE
  5
27f
100
AcDbEntity
  8
Layer_1
 62
7
100
AcDbSpline
 70
8
 71
3
 72
8
 73
4
 74
0
 40
0
 40
0
 40
0
 40
0
 40
1
 40
1
 40
1
 40
1
 10
150.018290
 20
169.319977
 30
0.0
 10
150.018290
 20
170.034508
 30
0.0
 10
150.399488
 20
170.694762
 30
0.0
 10
151.018290
 20
171.052028
 30
0.0
  0
SPLINE
  5
280
100
AcDbEntity
  8
Layer_1
 62
7
100
AcDbSpline
 70
8
 71
3
 72
8
 73
4
 74
0
 40
0
 40
0
 40
0
 40
0
 40
1
 40
1
 40
1
 40
1
 10
151.018290
 20
171.052028
 30
0.0
 10
151.637092
 20
171.409294
 30
0.0
 10
152.399488
 20
171.409294
 30
0.0
 10
153.018290
 20
171.052028
 30
0.0
  0
LWPOLYLINE
  5
281
100
AcDbEntity
  8
Layer_1
 62
7
100
AcDbPolyline
 90
2
 70
0
 10
150.018290
 20
154.725358
 30
0.0
 10
150.018290
 20
169.319977
 30
0.0
  0
SPLINE
  5
282
100
AcDbEntity
  8
Layer_1
 62
7
100
AcDbSpline
 70
8
 71
3
 72
8
 73
4
 74
0
 40
0
 40
0
 40
0
 40
0
 40
1
 40
1
 40
1
 40
1
 10
165.657600
 20
163.754718
 30
0.0
 10
166.276402
 20
163.397452
 30
0.0
 10
166.657599
 20
162.737198
 30
0.0
 10
166.657599
 20
162.022667
 30
0.0
  0
SPLINE
  5
283
100
AcDbEntity
  8
Layer_1
 62
7
100
AcDbSpline
 70
8
 71
3
 72
8
 73
4
 74
0
 40
0
 40
0
 40
0
 40
0
 40
1
 40
1
 40
1
 40
1
 10
166.657599
 20
162.022667
 30
0.0
 10
166.657599
 20
161.308137
 30
0.0
 10
166.276402
 20
160.647883
 30
0.0
 10
165.657600
 20
160.290617
 30
0.0
  0
LWPOLYLINE
  5
284
100
AcDbEntity
  8
Layer_1
 62
7
100
AcDbPolyline
 90
2
 70
0
 10
153.018290
 20
171.052028
 30
0.0
 10
165.657600
 20
163.754718
 30
0.0
  0
LWPOLYLINE
  5
285
100
AcDbEntity
  8
Layer_1
 62
7
100
AcDbPolyline
 90
1
 70
1
 10
165.657600
 20
160.290617
 30
0.0
  0
ENDSEC
  0
SECTION
  2
OBJECTS
  0
DICTIONARY
  5
C
330
0
100
AcDbDictionary
  3
ACAD_GROUP
350
D
  3
ACAD_MLINESTYLE
350
17
  0
DICTIONARY
  5
D
330
C
100
AcDbDictionary
  0
DICTIONARY
  5
1A
330
C
100
AcDbDictionary
  0
DICTIONARY
  5
17
330
C
100
AcDbDictionary
  3
STANDARD
350
18
  0
DICTIONARY
  5
19
330
C
100
AcDbDictionary
  0
ENDSEC
  0
EOF
