<?xml version="1.0" encoding="utf-8"?>
<!-- Generator: Fusion 360, Shaper Origin Export Add-In, Version 1.8.0  -->
<svg xmlns="http://www.w3.org/2000/svg" xmlns:xlink="http://www.w3.org/1999/xlink" xmlns:shaper="http://www.shapertools.com/namespaces/shaper" shaper:fusionaddin="version:1.8.0" width="15.5cm" height="8.5cm" version="1.1" x="0cm" y="0cm" viewBox="0 0 15.5 8.5" enable-background="new 0 0 15.5 8.5" xml:space="preserve"><path d="M-7.75,-0.22 L7.75,-0.22 7.75,8.28 -7.75,8.28 -7.75,-0.22z" transform="matrix(1,0,0,-1,7.75,8.28)" fill="rgb(0,0,0)" stroke-linecap="round" stroke-linejoin="round" /><path d="M-4.765,0.87 L-6.665,0.87 A0.15,0.15 270 0,0 -6.815,1.02 L-6.815,1.82 A0.15,0.15 180 0,0 -6.665,1.97 L-4.765,1.97 A0.15,0.15 90 0,0 -4.615,1.82 L-4.615,1.02 A0.15,0.15 0 0,0 -4.765,0.87z" transform="matrix(1,0,0,-1,7.75,8.28)" fill="rgb(255,255,255)" stroke="rgb(0,0,0)" stroke-width="0.0010cm" stroke-linecap="round" stroke-linejoin="round" /><path d="M3.66,0.22 L-3.66,0.22 A0.15,0.15 270 0,0 -3.81,0.37 L-3.81,7.69 A0.15,0.15 180 0,0 -3.66,7.84 L3.66,7.84 A0.15,0.15 90 0,0 3.81,7.69 L3.81,0.37 A0.15,0.15 0 0,0 3.66,0.22z" transform="matrix(1,0,0,-1,7.75,8.28)" fill="rgb(255,255,255)" stroke="rgb(0,0,0)" stroke-width="0.0010cm" stroke-linecap="round" stroke-linejoin="round" /><path d="M4.665,6.79 a1.05,1.05 0 1,1 2.1,0 a1.05,1.05 0 1,1 -2.1,0z" transform="matrix(1,0,0,-1,7.75,8.28)" fill="rgb(255,255,255)" stroke="rgb(0,0,0)" stroke-width="0.0010cm" stroke-linecap="round" stroke-linejoin="round" /><path d="M-6.765,6.79 a1.05,1.05 0 1,1 2.1,0 a1.05,1.05 0 1,1 -2.1,0z" transform="matrix(1,0,0,-1,7.75,8.28)" fill="rgb(255,255,255)" stroke="rgb(0,0,0)" stroke-width="0.0010cm" stroke-linecap="round" stroke-linejoin="round" /><path d="M-6.765,4.03 a1.05,1.05 0 1,1 2.1,0 a1.05,1.05 0 1,1 -2.1,0z" transform="matrix(1,0,0,-1,7.75,8.28)" fill="rgb(255,255,255)" stroke="rgb(0,0,0)" stroke-width="0.0010cm" stroke-linecap="round" stroke-linejoin="round" /><path d="M6.765,4.03 L6.765,1.27 A1.05,1.05 0 0,0 4.665,1.27 L4.665,4.03 A1.05,1.05 180 0,0 6.765,4.03z" transform="matrix(1,0,0,-1,7.75,8.28)" fill="rgb(255,255,255)" stroke="rgb(0,0,0)" stroke-width="0.0010cm" stroke-linecap="round" stroke-linejoin="round" /></svg>